<?xml version="1.0" encoding="utf-8" standalone="no"?>
<!DOCTYPE svg PUBLIC "-//W3C//DTD SVG 1.1//EN"
  "http://www.w3.org/Graphics/SVG/1.1/DTD/svg11.dtd">
<svg xmlns:xlink="http://www.w3.org/1999/xlink" width="720pt" height="720pt" viewBox="0 0 720 720" xmlns="http://www.w3.org/2000/svg" version="1.1">
 <metadata>
  <rdf:RDF xmlns:dc="http://purl.org/dc/elements/1.1/" xmlns:cc="http://creativecommons.org/ns#" xmlns:rdf="http://www.w3.org/1999/02/22-rdf-syntax-ns#">
   <cc:Work>
    <dc:type rdf:resource="http://purl.org/dc/dcmitype/StillImage"/>
    <dc:date>2025-02-16T18:00:25.985930</dc:date>
    <dc:format>image/svg+xml</dc:format>
    <dc:creator>
     <cc:Agent>
      <dc:title>Matplotlib v3.9.2, https://matplotlib.org/</dc:title>
     </cc:Agent>
    </dc:creator>
   </cc:Work>
  </rdf:RDF>
 </metadata>
 <defs>
  <style type="text/css">*{stroke-linejoin: round; stroke-linecap: butt}</style>
 </defs>
 <g id="figure_1">
  <g id="patch_1">
   <path d="M 0 720 
L 720 720 
L 720 0 
L 0 0 
z
" style="fill: #ffffff"/>
  </g>
  <g id="axes_1">
   <g id="patch_2">
    <path d="M 646.2 363.6 
C 646.2 327.19843 639.029684 291.150818 625.099406 257.520153 
C 611.169128 223.889487 590.749797 193.329798 565.01 167.59 
C 539.270202 141.850203 508.710513 121.430872 475.079847 107.500594 
C 441.449182 93.570316 405.40157 86.4 369 86.4 
C 332.59843 86.4 296.550818 93.570316 262.920153 107.500594 
C 229.289487 121.430872 198.729798 141.850203 172.99 167.59 
C 147.250203 193.329798 126.830872 223.889487 112.900594 257.520153 
C 98.970316 291.150818 91.8 327.19843 91.8 363.6 
C 91.8 400.00157 98.970316 436.049182 112.900594 469.679847 
C 126.830872 503.310513 147.250203 533.870202 172.99 559.61 
C 198.729798 585.349797 229.289487 605.769128 262.920153 619.699406 
C 296.550818 633.629684 332.59843 640.8 369 640.8 
C 405.40157 640.8 441.449182 633.629684 475.079847 619.699406 
C 508.710513 605.769128 539.270202 585.349797 565.01 559.61 
C 590.749797 533.870202 611.169128 503.310513 625.099406 469.679847 
C 639.029684 436.049182 646.2 400.00157 646.2 363.6 
M 369 363.6 
C 369 363.6 369 363.6 369 363.6 
C 369 363.6 369 363.6 369 363.6 
C 369 363.6 369 363.6 369 363.6 
C 369 363.6 369 363.6 369 363.6 
C 369 363.6 369 363.6 369 363.6 
C 369 363.6 369 363.6 369 363.6 
C 369 363.6 369 363.6 369 363.6 
C 369 363.6 369 363.6 369 363.6 
C 369 363.6 369 363.6 369 363.6 
C 369 363.6 369 363.6 369 363.6 
C 369 363.6 369 363.6 369 363.6 
C 369 363.6 369 363.6 369 363.6 
C 369 363.6 369 363.6 369 363.6 
C 369 363.6 369 363.6 369 363.6 
C 369 363.6 369 363.6 369 363.6 
C 369 363.6 369 363.6 369 363.6 
z
" style="fill: #f7f7f7"/>
   </g>
   <g id="patch_3">
    <path d="M 461.4 363.6 
L 386.695627 348.751606 
L 393.067637 227.105645 
L 322.8 283.579253 
L 260.465502 324.096673 
L 303.879301 387.301996 
L 345.9 403.610374 
L 369 363.6 
L 369 363.6 
z
" clip-path="url(#p319efd00b8)" style="fill: #008080; opacity: 0.4; stroke: #008080; stroke-linejoin: miter"/>
   </g>
   <g id="matplotlib.axis_1">
    <g id="xtick_1">
     <g id="line2d_1">
      <path d="M 369 363.6 
L 646.2 363.6 
" clip-path="url(#p319efd00b8)" style="fill: none; stroke-dasharray: 1.85,0.8; stroke-dashoffset: 0; stroke: #808080; stroke-width: 0.5"/>
     </g>
    </g>
    <g id="xtick_2">
     <g id="line2d_2">
      <path d="M 369 363.6 
L 581.34752 185.419275 
" clip-path="url(#p319efd00b8)" style="fill: none; stroke-dasharray: 1.85,0.8; stroke-dashoffset: 0; stroke: #808080; stroke-width: 0.5"/>
     </g>
    </g>
    <g id="xtick_3">
     <g id="line2d_3">
      <path d="M 369 363.6 
L 417.135275 90.611291 
" clip-path="url(#p319efd00b8)" style="fill: none; stroke-dasharray: 1.85,0.8; stroke-dashoffset: 0; stroke: #808080; stroke-width: 0.5"/>
     </g>
    </g>
    <g id="xtick_4">
     <g id="line2d_4">
      <path d="M 369 363.6 
L 230.4 123.537758 
" clip-path="url(#p319efd00b8)" style="fill: none; stroke-dasharray: 1.85,0.8; stroke-dashoffset: 0; stroke: #808080; stroke-width: 0.5"/>
     </g>
    </g>
    <g id="xtick_5">
     <g id="line2d_5">
      <path d="M 369 363.6 
L 108.517206 268.792016 
" clip-path="url(#p319efd00b8)" style="fill: none; stroke-dasharray: 1.85,0.8; stroke-dashoffset: 0; stroke: #808080; stroke-width: 0.5"/>
     </g>
    </g>
    <g id="xtick_6">
     <g id="line2d_6">
      <path d="M 369 363.6 
L 108.517206 458.407984 
" clip-path="url(#p319efd00b8)" style="fill: none; stroke-dasharray: 1.85,0.8; stroke-dashoffset: 0; stroke: #808080; stroke-width: 0.5"/>
     </g>
    </g>
    <g id="xtick_7">
     <g id="line2d_7">
      <path d="M 369 363.6 
L 230.4 603.662242 
" clip-path="url(#p319efd00b8)" style="fill: none; stroke-dasharray: 1.85,0.8; stroke-dashoffset: 0; stroke: #808080; stroke-width: 0.5"/>
     </g>
    </g>
    <g id="xtick_8">
     <g id="line2d_8">
      <path d="M 369 363.6 
L 417.135275 636.588709 
" clip-path="url(#p319efd00b8)" style="fill: none; stroke-dasharray: 1.85,0.8; stroke-dashoffset: 0; stroke: #808080; stroke-width: 0.5"/>
     </g>
    </g>
    <g id="xtick_9">
     <g id="line2d_9">
      <path d="M 369 363.6 
L 581.34752 541.780725 
" clip-path="url(#p319efd00b8)" style="fill: none; stroke-dasharray: 1.85,0.8; stroke-dashoffset: 0; stroke: #808080; stroke-width: 0.5"/>
     </g>
    </g>
   </g>
   <g id="matplotlib.axis_2">
    <g id="ytick_1">
     <g id="line2d_10">
      <path d="M 438.3 363.6 
C 438.3 354.499607 436.507421 345.487705 433.024852 337.080038 
C 429.542282 328.672372 424.437449 321.032449 418.0025 314.5975 
C 411.567551 308.162551 403.927628 303.057718 395.519962 299.575148 
C 387.112295 296.092579 378.100393 294.3 369 294.3 
C 359.899607 294.3 350.887705 296.092579 342.480038 299.575148 
C 334.072372 303.057718 326.432449 308.162551 319.9975 314.5975 
C 313.562551 321.032449 308.457718 328.672372 304.975148 337.080038 
C 301.492579 345.487705 299.7 354.499607 299.7 363.6 
C 299.7 372.700393 301.492579 381.712295 304.975148 390.119962 
C 308.457718 398.527628 313.562551 406.167551 319.9975 412.6025 
C 326.432449 419.037449 334.072372 424.142282 342.480038 427.624852 
C 350.887705 431.107421 359.899607 432.9 369 432.9 
C 378.100393 432.9 387.112295 431.107421 395.519962 427.624852 
C 403.927628 424.142282 411.567551 419.037449 418.0025 412.6025 
C 424.437449 406.167551 429.542282 398.527628 433.024852 390.119962 
C 436.507421 381.712295 438.3 372.700393 438.3 363.6 
" clip-path="url(#p319efd00b8)" style="fill: none; stroke-dasharray: 1.85,0.8; stroke-dashoffset: 0; stroke: #808080; stroke-width: 0.5"/>
     </g>
     <g id="text_1">
      <!-- 3% -->
      <g style="fill: #808080" transform="translate(438.3 360.688437) scale(0.14 -0.14)">
       <defs>
        <path id="DejaVuSans-33" d="M 2597 2516 
Q 3050 2419 3304 2112 
Q 3559 1806 3559 1356 
Q 3559 666 3084 287 
Q 2609 -91 1734 -91 
Q 1441 -91 1130 -33 
Q 819 25 488 141 
L 488 750 
Q 750 597 1062 519 
Q 1375 441 1716 441 
Q 2309 441 2620 675 
Q 2931 909 2931 1356 
Q 2931 1769 2642 2001 
Q 2353 2234 1838 2234 
L 1294 2234 
L 1294 2753 
L 1863 2753 
Q 2328 2753 2575 2939 
Q 2822 3125 2822 3475 
Q 2822 3834 2567 4026 
Q 2313 4219 1838 4219 
Q 1578 4219 1281 4162 
Q 984 4106 628 3988 
L 628 4550 
Q 988 4650 1302 4700 
Q 1616 4750 1894 4750 
Q 2613 4750 3031 4423 
Q 3450 4097 3450 3541 
Q 3450 3153 3228 2886 
Q 3006 2619 2597 2516 
z
" transform="scale(0.015625)"/>
        <path id="DejaVuSans-25" d="M 4653 2053 
Q 4381 2053 4226 1822 
Q 4072 1591 4072 1178 
Q 4072 772 4226 539 
Q 4381 306 4653 306 
Q 4919 306 5073 539 
Q 5228 772 5228 1178 
Q 5228 1588 5073 1820 
Q 4919 2053 4653 2053 
z
M 4653 2450 
Q 5147 2450 5437 2106 
Q 5728 1763 5728 1178 
Q 5728 594 5436 251 
Q 5144 -91 4653 -91 
Q 4153 -91 3862 251 
Q 3572 594 3572 1178 
Q 3572 1766 3864 2108 
Q 4156 2450 4653 2450 
z
M 1428 4353 
Q 1159 4353 1004 4120 
Q 850 3888 850 3481 
Q 850 3069 1003 2837 
Q 1156 2606 1428 2606 
Q 1700 2606 1854 2837 
Q 2009 3069 2009 3481 
Q 2009 3884 1853 4118 
Q 1697 4353 1428 4353 
z
M 4250 4750 
L 4750 4750 
L 1831 -91 
L 1331 -91 
L 4250 4750 
z
M 1428 4750 
Q 1922 4750 2215 4408 
Q 2509 4066 2509 3481 
Q 2509 2891 2217 2550 
Q 1925 2209 1428 2209 
Q 931 2209 642 2551 
Q 353 2894 353 3481 
Q 353 4063 643 4406 
Q 934 4750 1428 4750 
z
" transform="scale(0.015625)"/>
       </defs>
       <use xlink:href="#DejaVuSans-33"/>
       <use xlink:href="#DejaVuSans-25" x="63.623047"/>
      </g>
     </g>
    </g>
    <g id="ytick_2">
     <g id="line2d_11">
      <path d="M 507.6 363.6 
C 507.6 345.399215 504.014842 327.375409 497.049703 310.560076 
C 490.084564 293.744743 479.874899 278.464899 467.005 265.595 
C 454.135101 252.725101 438.855257 242.515436 422.039924 235.550297 
C 405.224591 228.585158 387.200785 225 369 225 
C 350.799215 225 332.775409 228.585158 315.960076 235.550297 
C 299.144743 242.515436 283.864899 252.725101 270.995 265.595 
C 258.125101 278.464899 247.915436 293.744743 240.950297 310.560076 
C 233.985158 327.375409 230.4 345.399215 230.4 363.6 
C 230.4 381.800785 233.985158 399.824591 240.950297 416.639924 
C 247.915436 433.455257 258.125101 448.735101 270.995 461.605 
C 283.864899 474.474899 299.144743 484.684564 315.960076 491.649703 
C 332.775409 498.614842 350.799215 502.2 369 502.2 
C 387.200785 502.2 405.224591 498.614842 422.039924 491.649703 
C 438.855257 484.684564 454.135101 474.474899 467.005 461.605 
C 479.874899 448.735101 490.084564 433.455257 497.049703 416.639924 
C 504.014842 399.824591 507.6 381.800785 507.6 363.6 
" clip-path="url(#p319efd00b8)" style="fill: none; stroke-dasharray: 1.85,0.8; stroke-dashoffset: 0; stroke: #808080; stroke-width: 0.5"/>
     </g>
     <g id="text_2">
      <!-- 6% -->
      <g style="fill: #808080" transform="translate(507.6 360.688437) scale(0.14 -0.14)">
       <defs>
        <path id="DejaVuSans-36" d="M 2113 2584 
Q 1688 2584 1439 2293 
Q 1191 2003 1191 1497 
Q 1191 994 1439 701 
Q 1688 409 2113 409 
Q 2538 409 2786 701 
Q 3034 994 3034 1497 
Q 3034 2003 2786 2293 
Q 2538 2584 2113 2584 
z
M 3366 4563 
L 3366 3988 
Q 3128 4100 2886 4159 
Q 2644 4219 2406 4219 
Q 1781 4219 1451 3797 
Q 1122 3375 1075 2522 
Q 1259 2794 1537 2939 
Q 1816 3084 2150 3084 
Q 2853 3084 3261 2657 
Q 3669 2231 3669 1497 
Q 3669 778 3244 343 
Q 2819 -91 2113 -91 
Q 1303 -91 875 529 
Q 447 1150 447 2328 
Q 447 3434 972 4092 
Q 1497 4750 2381 4750 
Q 2619 4750 2861 4703 
Q 3103 4656 3366 4563 
z
" transform="scale(0.015625)"/>
       </defs>
       <use xlink:href="#DejaVuSans-36"/>
       <use xlink:href="#DejaVuSans-25" x="63.623047"/>
      </g>
     </g>
    </g>
    <g id="ytick_3">
     <g id="line2d_12">
      <path d="M 576.9 363.6 
C 576.9 336.298822 571.522263 309.263114 561.074555 284.040114 
C 550.626846 258.817115 535.312348 235.897348 516.0075 216.5925 
C 496.702652 197.287652 473.782885 181.973154 448.559886 171.525445 
C 423.336886 161.077737 396.301178 155.7 369 155.7 
C 341.698822 155.7 314.663114 161.077737 289.440114 171.525445 
C 264.217115 181.973154 241.297348 197.287652 221.9925 216.5925 
C 202.687652 235.897348 187.373154 258.817115 176.925445 284.040114 
C 166.477737 309.263114 161.1 336.298822 161.1 363.6 
C 161.1 390.901178 166.477737 417.936886 176.925445 443.159886 
C 187.373154 468.382885 202.687652 491.302652 221.9925 510.6075 
C 241.297348 529.912348 264.217115 545.226846 289.440114 555.674555 
C 314.663114 566.122263 341.698822 571.5 369 571.5 
C 396.301178 571.5 423.336886 566.122263 448.559886 555.674555 
C 473.782885 545.226846 496.702652 529.912348 516.0075 510.6075 
C 535.312348 491.302652 550.626846 468.382885 561.074555 443.159886 
C 571.522263 417.936886 576.9 390.901178 576.9 363.6 
" clip-path="url(#p319efd00b8)" style="fill: none; stroke-dasharray: 1.85,0.8; stroke-dashoffset: 0; stroke: #808080; stroke-width: 0.5"/>
     </g>
     <g id="text_3">
      <!-- 9% -->
      <g style="fill: #808080" transform="translate(576.9 360.688437) scale(0.14 -0.14)">
       <defs>
        <path id="DejaVuSans-39" d="M 703 97 
L 703 672 
Q 941 559 1184 500 
Q 1428 441 1663 441 
Q 2288 441 2617 861 
Q 2947 1281 2994 2138 
Q 2813 1869 2534 1725 
Q 2256 1581 1919 1581 
Q 1219 1581 811 2004 
Q 403 2428 403 3163 
Q 403 3881 828 4315 
Q 1253 4750 1959 4750 
Q 2769 4750 3195 4129 
Q 3622 3509 3622 2328 
Q 3622 1225 3098 567 
Q 2575 -91 1691 -91 
Q 1453 -91 1209 -44 
Q 966 3 703 97 
z
M 1959 2075 
Q 2384 2075 2632 2365 
Q 2881 2656 2881 3163 
Q 2881 3666 2632 3958 
Q 2384 4250 1959 4250 
Q 1534 4250 1286 3958 
Q 1038 3666 1038 3163 
Q 1038 2656 1286 2365 
Q 1534 2075 1959 2075 
z
" transform="scale(0.015625)"/>
       </defs>
       <use xlink:href="#DejaVuSans-39"/>
       <use xlink:href="#DejaVuSans-25" x="63.623047"/>
      </g>
     </g>
    </g>
    <g id="ytick_4">
     <g id="line2d_13">
      <path d="M 646.2 363.6 
C 646.2 327.19843 639.029684 291.150818 625.099406 257.520153 
C 611.169128 223.889487 590.749797 193.329798 565.01 167.59 
C 539.270202 141.850203 508.710513 121.430872 475.079847 107.500594 
C 441.449182 93.570316 405.40157 86.4 369 86.4 
C 332.59843 86.4 296.550818 93.570316 262.920153 107.500594 
C 229.289487 121.430872 198.729798 141.850203 172.99 167.59 
C 147.250203 193.329798 126.830872 223.889487 112.900594 257.520153 
C 98.970316 291.150818 91.8 327.19843 91.8 363.6 
C 91.8 400.00157 98.970316 436.049182 112.900594 469.679847 
C 126.830872 503.310513 147.250203 533.870202 172.99 559.61 
C 198.729798 585.349797 229.289487 605.769128 262.920153 619.699406 
C 296.550818 633.629684 332.59843 640.8 369 640.8 
C 405.40157 640.8 441.449182 633.629684 475.079847 619.699406 
C 508.710513 605.769128 539.270202 585.349797 565.01 559.61 
C 590.749797 533.870202 611.169128 503.310513 625.099406 469.679847 
C 639.029684 436.049182 646.2 400.00157 646.2 363.6 
" clip-path="url(#p319efd00b8)" style="fill: none; stroke-dasharray: 1.85,0.8; stroke-dashoffset: 0; stroke: #808080; stroke-width: 0.5"/>
     </g>
     <g id="text_4">
      <!-- 12% -->
      <g style="fill: #808080" transform="translate(646.2 360.688437) scale(0.14 -0.14)">
       <defs>
        <path id="DejaVuSans-31" d="M 794 531 
L 1825 531 
L 1825 4091 
L 703 3866 
L 703 4441 
L 1819 4666 
L 2450 4666 
L 2450 531 
L 3481 531 
L 3481 0 
L 794 0 
L 794 531 
z
" transform="scale(0.015625)"/>
        <path id="DejaVuSans-32" d="M 1228 531 
L 3431 531 
L 3431 0 
L 469 0 
L 469 531 
Q 828 903 1448 1529 
Q 2069 2156 2228 2338 
Q 2531 2678 2651 2914 
Q 2772 3150 2772 3378 
Q 2772 3750 2511 3984 
Q 2250 4219 1831 4219 
Q 1534 4219 1204 4116 
Q 875 4013 500 3803 
L 500 4441 
Q 881 4594 1212 4672 
Q 1544 4750 1819 4750 
Q 2544 4750 2975 4387 
Q 3406 4025 3406 3419 
Q 3406 3131 3298 2873 
Q 3191 2616 2906 2266 
Q 2828 2175 2409 1742 
Q 1991 1309 1228 531 
z
" transform="scale(0.015625)"/>
       </defs>
       <use xlink:href="#DejaVuSans-31"/>
       <use xlink:href="#DejaVuSans-32" x="63.623047"/>
       <use xlink:href="#DejaVuSans-25" x="127.246094"/>
      </g>
     </g>
    </g>
   </g>
   <g id="line2d_14">
    <path d="M 461.4 363.6 
L 386.695627 348.751606 
L 393.067637 227.105645 
L 322.8 283.579253 
L 260.465502 324.096673 
L 303.879301 387.301996 
L 345.9 403.610374 
L 369 363.6 
L 369 363.6 
L 461.4 363.6 
" clip-path="url(#p319efd00b8)" style="fill: none; stroke: #008080; stroke-width: 2; stroke-linecap: square"/>
   </g>
   <g id="text_5">
    <!-- Sistemas embebidos en tiempo -->
    <g transform="translate(479.88 374.237812) scale(0.14 -0.14)">
     <defs>
      <path id="DejaVuSans-53" d="M 3425 4513 
L 3425 3897 
Q 3066 4069 2747 4153 
Q 2428 4238 2131 4238 
Q 1616 4238 1336 4038 
Q 1056 3838 1056 3469 
Q 1056 3159 1242 3001 
Q 1428 2844 1947 2747 
L 2328 2669 
Q 3034 2534 3370 2195 
Q 3706 1856 3706 1288 
Q 3706 609 3251 259 
Q 2797 -91 1919 -91 
Q 1588 -91 1214 -16 
Q 841 59 441 206 
L 441 856 
Q 825 641 1194 531 
Q 1563 422 1919 422 
Q 2459 422 2753 634 
Q 3047 847 3047 1241 
Q 3047 1584 2836 1778 
Q 2625 1972 2144 2069 
L 1759 2144 
Q 1053 2284 737 2584 
Q 422 2884 422 3419 
Q 422 4038 858 4394 
Q 1294 4750 2059 4750 
Q 2388 4750 2728 4690 
Q 3069 4631 3425 4513 
z
" transform="scale(0.015625)"/>
      <path id="DejaVuSans-69" d="M 603 3500 
L 1178 3500 
L 1178 0 
L 603 0 
L 603 3500 
z
M 603 4863 
L 1178 4863 
L 1178 4134 
L 603 4134 
L 603 4863 
z
" transform="scale(0.015625)"/>
      <path id="DejaVuSans-73" d="M 2834 3397 
L 2834 2853 
Q 2591 2978 2328 3040 
Q 2066 3103 1784 3103 
Q 1356 3103 1142 2972 
Q 928 2841 928 2578 
Q 928 2378 1081 2264 
Q 1234 2150 1697 2047 
L 1894 2003 
Q 2506 1872 2764 1633 
Q 3022 1394 3022 966 
Q 3022 478 2636 193 
Q 2250 -91 1575 -91 
Q 1294 -91 989 -36 
Q 684 19 347 128 
L 347 722 
Q 666 556 975 473 
Q 1284 391 1588 391 
Q 1994 391 2212 530 
Q 2431 669 2431 922 
Q 2431 1156 2273 1281 
Q 2116 1406 1581 1522 
L 1381 1569 
Q 847 1681 609 1914 
Q 372 2147 372 2553 
Q 372 3047 722 3315 
Q 1072 3584 1716 3584 
Q 2034 3584 2315 3537 
Q 2597 3491 2834 3397 
z
" transform="scale(0.015625)"/>
      <path id="DejaVuSans-74" d="M 1172 4494 
L 1172 3500 
L 2356 3500 
L 2356 3053 
L 1172 3053 
L 1172 1153 
Q 1172 725 1289 603 
Q 1406 481 1766 481 
L 2356 481 
L 2356 0 
L 1766 0 
Q 1100 0 847 248 
Q 594 497 594 1153 
L 594 3053 
L 172 3053 
L 172 3500 
L 594 3500 
L 594 4494 
L 1172 4494 
z
" transform="scale(0.015625)"/>
      <path id="DejaVuSans-65" d="M 3597 1894 
L 3597 1613 
L 953 1613 
Q 991 1019 1311 708 
Q 1631 397 2203 397 
Q 2534 397 2845 478 
Q 3156 559 3463 722 
L 3463 178 
Q 3153 47 2828 -22 
Q 2503 -91 2169 -91 
Q 1331 -91 842 396 
Q 353 884 353 1716 
Q 353 2575 817 3079 
Q 1281 3584 2069 3584 
Q 2775 3584 3186 3129 
Q 3597 2675 3597 1894 
z
M 3022 2063 
Q 3016 2534 2758 2815 
Q 2500 3097 2075 3097 
Q 1594 3097 1305 2825 
Q 1016 2553 972 2059 
L 3022 2063 
z
" transform="scale(0.015625)"/>
      <path id="DejaVuSans-6d" d="M 3328 2828 
Q 3544 3216 3844 3400 
Q 4144 3584 4550 3584 
Q 5097 3584 5394 3201 
Q 5691 2819 5691 2113 
L 5691 0 
L 5113 0 
L 5113 2094 
Q 5113 2597 4934 2840 
Q 4756 3084 4391 3084 
Q 3944 3084 3684 2787 
Q 3425 2491 3425 1978 
L 3425 0 
L 2847 0 
L 2847 2094 
Q 2847 2600 2669 2842 
Q 2491 3084 2119 3084 
Q 1678 3084 1418 2786 
Q 1159 2488 1159 1978 
L 1159 0 
L 581 0 
L 581 3500 
L 1159 3500 
L 1159 2956 
Q 1356 3278 1631 3431 
Q 1906 3584 2284 3584 
Q 2666 3584 2933 3390 
Q 3200 3197 3328 2828 
z
" transform="scale(0.015625)"/>
      <path id="DejaVuSans-61" d="M 2194 1759 
Q 1497 1759 1228 1600 
Q 959 1441 959 1056 
Q 959 750 1161 570 
Q 1363 391 1709 391 
Q 2188 391 2477 730 
Q 2766 1069 2766 1631 
L 2766 1759 
L 2194 1759 
z
M 3341 1997 
L 3341 0 
L 2766 0 
L 2766 531 
Q 2569 213 2275 61 
Q 1981 -91 1556 -91 
Q 1019 -91 701 211 
Q 384 513 384 1019 
Q 384 1609 779 1909 
Q 1175 2209 1959 2209 
L 2766 2209 
L 2766 2266 
Q 2766 2663 2505 2880 
Q 2244 3097 1772 3097 
Q 1472 3097 1187 3025 
Q 903 2953 641 2809 
L 641 3341 
Q 956 3463 1253 3523 
Q 1550 3584 1831 3584 
Q 2591 3584 2966 3190 
Q 3341 2797 3341 1997 
z
" transform="scale(0.015625)"/>
      <path id="DejaVuSans-20" transform="scale(0.015625)"/>
      <path id="DejaVuSans-62" d="M 3116 1747 
Q 3116 2381 2855 2742 
Q 2594 3103 2138 3103 
Q 1681 3103 1420 2742 
Q 1159 2381 1159 1747 
Q 1159 1113 1420 752 
Q 1681 391 2138 391 
Q 2594 391 2855 752 
Q 3116 1113 3116 1747 
z
M 1159 2969 
Q 1341 3281 1617 3432 
Q 1894 3584 2278 3584 
Q 2916 3584 3314 3078 
Q 3713 2572 3713 1747 
Q 3713 922 3314 415 
Q 2916 -91 2278 -91 
Q 1894 -91 1617 61 
Q 1341 213 1159 525 
L 1159 0 
L 581 0 
L 581 4863 
L 1159 4863 
L 1159 2969 
z
" transform="scale(0.015625)"/>
      <path id="DejaVuSans-64" d="M 2906 2969 
L 2906 4863 
L 3481 4863 
L 3481 0 
L 2906 0 
L 2906 525 
Q 2725 213 2448 61 
Q 2172 -91 1784 -91 
Q 1150 -91 751 415 
Q 353 922 353 1747 
Q 353 2572 751 3078 
Q 1150 3584 1784 3584 
Q 2172 3584 2448 3432 
Q 2725 3281 2906 2969 
z
M 947 1747 
Q 947 1113 1208 752 
Q 1469 391 1925 391 
Q 2381 391 2643 752 
Q 2906 1113 2906 1747 
Q 2906 2381 2643 2742 
Q 2381 3103 1925 3103 
Q 1469 3103 1208 2742 
Q 947 2381 947 1747 
z
" transform="scale(0.015625)"/>
      <path id="DejaVuSans-6f" d="M 1959 3097 
Q 1497 3097 1228 2736 
Q 959 2375 959 1747 
Q 959 1119 1226 758 
Q 1494 397 1959 397 
Q 2419 397 2687 759 
Q 2956 1122 2956 1747 
Q 2956 2369 2687 2733 
Q 2419 3097 1959 3097 
z
M 1959 3584 
Q 2709 3584 3137 3096 
Q 3566 2609 3566 1747 
Q 3566 888 3137 398 
Q 2709 -91 1959 -91 
Q 1206 -91 779 398 
Q 353 888 353 1747 
Q 353 2609 779 3096 
Q 1206 3584 1959 3584 
z
" transform="scale(0.015625)"/>
      <path id="DejaVuSans-6e" d="M 3513 2113 
L 3513 0 
L 2938 0 
L 2938 2094 
Q 2938 2591 2744 2837 
Q 2550 3084 2163 3084 
Q 1697 3084 1428 2787 
Q 1159 2491 1159 1978 
L 1159 0 
L 581 0 
L 581 3500 
L 1159 3500 
L 1159 2956 
Q 1366 3272 1645 3428 
Q 1925 3584 2291 3584 
Q 2894 3584 3203 3211 
Q 3513 2838 3513 2113 
z
" transform="scale(0.015625)"/>
      <path id="DejaVuSans-70" d="M 1159 525 
L 1159 -1331 
L 581 -1331 
L 581 3500 
L 1159 3500 
L 1159 2969 
Q 1341 3281 1617 3432 
Q 1894 3584 2278 3584 
Q 2916 3584 3314 3078 
Q 3713 2572 3713 1747 
Q 3713 922 3314 415 
Q 2916 -91 2278 -91 
Q 1894 -91 1617 61 
Q 1341 213 1159 525 
z
M 3116 1747 
Q 3116 2381 2855 2742 
Q 2594 3103 2138 3103 
Q 1681 3103 1420 2742 
Q 1159 2381 1159 1747 
Q 1159 1113 1420 752 
Q 1681 391 2138 391 
Q 2594 391 2855 752 
Q 3116 1113 3116 1747 
z
" transform="scale(0.015625)"/>
     </defs>
     <use xlink:href="#DejaVuSans-53"/>
     <use xlink:href="#DejaVuSans-69" x="63.476562"/>
     <use xlink:href="#DejaVuSans-73" x="91.259766"/>
     <use xlink:href="#DejaVuSans-74" x="143.359375"/>
     <use xlink:href="#DejaVuSans-65" x="182.568359"/>
     <use xlink:href="#DejaVuSans-6d" x="244.091797"/>
     <use xlink:href="#DejaVuSans-61" x="341.503906"/>
     <use xlink:href="#DejaVuSans-73" x="402.783203"/>
     <use xlink:href="#DejaVuSans-20" x="454.882812"/>
     <use xlink:href="#DejaVuSans-65" x="486.669922"/>
     <use xlink:href="#DejaVuSans-6d" x="548.193359"/>
     <use xlink:href="#DejaVuSans-62" x="645.605469"/>
     <use xlink:href="#DejaVuSans-65" x="709.082031"/>
     <use xlink:href="#DejaVuSans-62" x="770.605469"/>
     <use xlink:href="#DejaVuSans-69" x="834.082031"/>
     <use xlink:href="#DejaVuSans-64" x="861.865234"/>
     <use xlink:href="#DejaVuSans-6f" x="925.341797"/>
     <use xlink:href="#DejaVuSans-73" x="986.523438"/>
     <use xlink:href="#DejaVuSans-20" x="1038.623047"/>
     <use xlink:href="#DejaVuSans-65" x="1070.410156"/>
     <use xlink:href="#DejaVuSans-6e" x="1131.933594"/>
     <use xlink:href="#DejaVuSans-20" x="1195.3125"/>
     <use xlink:href="#DejaVuSans-74" x="1227.099609"/>
     <use xlink:href="#DejaVuSans-69" x="1266.308594"/>
     <use xlink:href="#DejaVuSans-65" x="1294.091797"/>
     <use xlink:href="#DejaVuSans-6d" x="1355.615234"/>
     <use xlink:href="#DejaVuSans-70" x="1453.027344"/>
     <use xlink:href="#DejaVuSans-6f" x="1516.503906"/>
    </g>
    <!-- real -->
    <g transform="translate(479.88 389.91475) scale(0.14 -0.14)">
     <defs>
      <path id="DejaVuSans-72" d="M 2631 2963 
Q 2534 3019 2420 3045 
Q 2306 3072 2169 3072 
Q 1681 3072 1420 2755 
Q 1159 2438 1159 1844 
L 1159 0 
L 581 0 
L 581 3500 
L 1159 3500 
L 1159 2956 
Q 1341 3275 1631 3429 
Q 1922 3584 2338 3584 
Q 2397 3584 2469 3576 
Q 2541 3569 2628 3553 
L 2631 2963 
z
" transform="scale(0.015625)"/>
      <path id="DejaVuSans-6c" d="M 603 4863 
L 1178 4863 
L 1178 0 
L 603 0 
L 603 4863 
z
" transform="scale(0.015625)"/>
     </defs>
     <use xlink:href="#DejaVuSans-72"/>
     <use xlink:href="#DejaVuSans-65" x="38.863281"/>
     <use xlink:href="#DejaVuSans-61" x="100.386719"/>
     <use xlink:href="#DejaVuSans-6c" x="161.666016"/>
    </g>
   </g>
   <g id="text_6">
    <!-- Interfaz humano máquina -->
    <g transform="translate(461.136823 300.905732) rotate(-40) scale(0.14 -0.14)">
     <defs>
      <path id="DejaVuSans-49" d="M 628 4666 
L 1259 4666 
L 1259 0 
L 628 0 
L 628 4666 
z
" transform="scale(0.015625)"/>
      <path id="DejaVuSans-66" d="M 2375 4863 
L 2375 4384 
L 1825 4384 
Q 1516 4384 1395 4259 
Q 1275 4134 1275 3809 
L 1275 3500 
L 2222 3500 
L 2222 3053 
L 1275 3053 
L 1275 0 
L 697 0 
L 697 3053 
L 147 3053 
L 147 3500 
L 697 3500 
L 697 3744 
Q 697 4328 969 4595 
Q 1241 4863 1831 4863 
L 2375 4863 
z
" transform="scale(0.015625)"/>
      <path id="DejaVuSans-7a" d="M 353 3500 
L 3084 3500 
L 3084 2975 
L 922 459 
L 3084 459 
L 3084 0 
L 275 0 
L 275 525 
L 2438 3041 
L 353 3041 
L 353 3500 
z
" transform="scale(0.015625)"/>
      <path id="DejaVuSans-68" d="M 3513 2113 
L 3513 0 
L 2938 0 
L 2938 2094 
Q 2938 2591 2744 2837 
Q 2550 3084 2163 3084 
Q 1697 3084 1428 2787 
Q 1159 2491 1159 1978 
L 1159 0 
L 581 0 
L 581 4863 
L 1159 4863 
L 1159 2956 
Q 1366 3272 1645 3428 
Q 1925 3584 2291 3584 
Q 2894 3584 3203 3211 
Q 3513 2838 3513 2113 
z
" transform="scale(0.015625)"/>
      <path id="DejaVuSans-75" d="M 544 1381 
L 544 3500 
L 1119 3500 
L 1119 1403 
Q 1119 906 1312 657 
Q 1506 409 1894 409 
Q 2359 409 2629 706 
Q 2900 1003 2900 1516 
L 2900 3500 
L 3475 3500 
L 3475 0 
L 2900 0 
L 2900 538 
Q 2691 219 2414 64 
Q 2138 -91 1772 -91 
Q 1169 -91 856 284 
Q 544 659 544 1381 
z
M 1991 3584 
L 1991 3584 
z
" transform="scale(0.015625)"/>
      <path id="DejaVuSans-e1" d="M 2194 1759 
Q 1497 1759 1228 1600 
Q 959 1441 959 1056 
Q 959 750 1161 570 
Q 1363 391 1709 391 
Q 2188 391 2477 730 
Q 2766 1069 2766 1631 
L 2766 1759 
L 2194 1759 
z
M 3341 1997 
L 3341 0 
L 2766 0 
L 2766 531 
Q 2569 213 2275 61 
Q 1981 -91 1556 -91 
Q 1019 -91 701 211 
Q 384 513 384 1019 
Q 384 1609 779 1909 
Q 1175 2209 1959 2209 
L 2766 2209 
L 2766 2266 
Q 2766 2663 2505 2880 
Q 2244 3097 1772 3097 
Q 1472 3097 1187 3025 
Q 903 2953 641 2809 
L 641 3341 
Q 956 3463 1253 3523 
Q 1550 3584 1831 3584 
Q 2591 3584 2966 3190 
Q 3341 2797 3341 1997 
z
M 2290 5119 
L 2912 5119 
L 1894 3944 
L 1415 3944 
L 2290 5119 
z
" transform="scale(0.015625)"/>
      <path id="DejaVuSans-71" d="M 947 1747 
Q 947 1113 1208 752 
Q 1469 391 1925 391 
Q 2381 391 2643 752 
Q 2906 1113 2906 1747 
Q 2906 2381 2643 2742 
Q 2381 3103 1925 3103 
Q 1469 3103 1208 2742 
Q 947 2381 947 1747 
z
M 2906 525 
Q 2725 213 2448 61 
Q 2172 -91 1784 -91 
Q 1150 -91 751 415 
Q 353 922 353 1747 
Q 353 2572 751 3078 
Q 1150 3584 1784 3584 
Q 2172 3584 2448 3432 
Q 2725 3281 2906 2969 
L 2906 3500 
L 3481 3500 
L 3481 -1331 
L 2906 -1331 
L 2906 525 
z
" transform="scale(0.015625)"/>
     </defs>
     <use xlink:href="#DejaVuSans-49"/>
     <use xlink:href="#DejaVuSans-6e" x="29.492188"/>
     <use xlink:href="#DejaVuSans-74" x="92.871094"/>
     <use xlink:href="#DejaVuSans-65" x="132.080078"/>
     <use xlink:href="#DejaVuSans-72" x="193.603516"/>
     <use xlink:href="#DejaVuSans-66" x="234.716797"/>
     <use xlink:href="#DejaVuSans-61" x="269.921875"/>
     <use xlink:href="#DejaVuSans-7a" x="331.201172"/>
     <use xlink:href="#DejaVuSans-20" x="383.691406"/>
     <use xlink:href="#DejaVuSans-68" x="415.478516"/>
     <use xlink:href="#DejaVuSans-75" x="478.857422"/>
     <use xlink:href="#DejaVuSans-6d" x="542.236328"/>
     <use xlink:href="#DejaVuSans-61" x="639.648438"/>
     <use xlink:href="#DejaVuSans-6e" x="700.927734"/>
     <use xlink:href="#DejaVuSans-6f" x="764.306641"/>
     <use xlink:href="#DejaVuSans-20" x="825.488281"/>
     <use xlink:href="#DejaVuSans-6d" x="857.275391"/>
     <use xlink:href="#DejaVuSans-e1" x="954.6875"/>
     <use xlink:href="#DejaVuSans-71" x="1015.966797"/>
     <use xlink:href="#DejaVuSans-75" x="1079.443359"/>
     <use xlink:href="#DejaVuSans-69" x="1142.822266"/>
     <use xlink:href="#DejaVuSans-6e" x="1170.605469"/>
     <use xlink:href="#DejaVuSans-61" x="1233.984375"/>
    </g>
   </g>
   <g id="text_7">
    <!-- Ingeniería de sistemas -->
    <g transform="translate(399.281803 256.348996) rotate(-80) scale(0.14 -0.14)">
     <defs>
      <path id="DejaVuSans-67" d="M 2906 1791 
Q 2906 2416 2648 2759 
Q 2391 3103 1925 3103 
Q 1463 3103 1205 2759 
Q 947 2416 947 1791 
Q 947 1169 1205 825 
Q 1463 481 1925 481 
Q 2391 481 2648 825 
Q 2906 1169 2906 1791 
z
M 3481 434 
Q 3481 -459 3084 -895 
Q 2688 -1331 1869 -1331 
Q 1566 -1331 1297 -1286 
Q 1028 -1241 775 -1147 
L 775 -588 
Q 1028 -725 1275 -790 
Q 1522 -856 1778 -856 
Q 2344 -856 2625 -561 
Q 2906 -266 2906 331 
L 2906 616 
Q 2728 306 2450 153 
Q 2172 0 1784 0 
Q 1141 0 747 490 
Q 353 981 353 1791 
Q 353 2603 747 3093 
Q 1141 3584 1784 3584 
Q 2172 3584 2450 3431 
Q 2728 3278 2906 2969 
L 2906 3500 
L 3481 3500 
L 3481 434 
z
" transform="scale(0.015625)"/>
      <path id="DejaVuSans-ed" d="M 1322 5119 
L 1944 5119 
L 926 3944 
L 447 3944 
L 1322 5119 
z
M 603 3500 
L 1178 3500 
L 1178 0 
L 603 0 
L 603 3500 
z
M 891 3584 
L 891 3584 
z
" transform="scale(0.015625)"/>
     </defs>
     <use xlink:href="#DejaVuSans-49"/>
     <use xlink:href="#DejaVuSans-6e" x="29.492188"/>
     <use xlink:href="#DejaVuSans-67" x="92.871094"/>
     <use xlink:href="#DejaVuSans-65" x="156.347656"/>
     <use xlink:href="#DejaVuSans-6e" x="217.871094"/>
     <use xlink:href="#DejaVuSans-69" x="281.25"/>
     <use xlink:href="#DejaVuSans-65" x="309.033203"/>
     <use xlink:href="#DejaVuSans-72" x="370.556641"/>
     <use xlink:href="#DejaVuSans-ed" x="411.669922"/>
     <use xlink:href="#DejaVuSans-61" x="439.453125"/>
     <use xlink:href="#DejaVuSans-20" x="500.732422"/>
     <use xlink:href="#DejaVuSans-64" x="532.519531"/>
     <use xlink:href="#DejaVuSans-65" x="595.996094"/>
     <use xlink:href="#DejaVuSans-20" x="657.519531"/>
     <use xlink:href="#DejaVuSans-73" x="689.306641"/>
     <use xlink:href="#DejaVuSans-69" x="741.40625"/>
     <use xlink:href="#DejaVuSans-73" x="769.189453"/>
     <use xlink:href="#DejaVuSans-74" x="821.289062"/>
     <use xlink:href="#DejaVuSans-65" x="860.498047"/>
     <use xlink:href="#DejaVuSans-6d" x="922.021484"/>
     <use xlink:href="#DejaVuSans-61" x="1019.433594"/>
     <use xlink:href="#DejaVuSans-73" x="1080.712891"/>
    </g>
    <!-- complejos -->
    <g transform="translate(414.720572 259.071268) rotate(-80) scale(0.14 -0.14)">
     <defs>
      <path id="DejaVuSans-63" d="M 3122 3366 
L 3122 2828 
Q 2878 2963 2633 3030 
Q 2388 3097 2138 3097 
Q 1578 3097 1268 2742 
Q 959 2388 959 1747 
Q 959 1106 1268 751 
Q 1578 397 2138 397 
Q 2388 397 2633 464 
Q 2878 531 3122 666 
L 3122 134 
Q 2881 22 2623 -34 
Q 2366 -91 2075 -91 
Q 1284 -91 818 406 
Q 353 903 353 1747 
Q 353 2603 823 3093 
Q 1294 3584 2113 3584 
Q 2378 3584 2631 3529 
Q 2884 3475 3122 3366 
z
" transform="scale(0.015625)"/>
      <path id="DejaVuSans-6a" d="M 603 3500 
L 1178 3500 
L 1178 -63 
Q 1178 -731 923 -1031 
Q 669 -1331 103 -1331 
L -116 -1331 
L -116 -844 
L 38 -844 
Q 366 -844 484 -692 
Q 603 -541 603 -63 
L 603 3500 
z
M 603 4863 
L 1178 4863 
L 1178 4134 
L 603 4134 
L 603 4863 
z
" transform="scale(0.015625)"/>
     </defs>
     <use xlink:href="#DejaVuSans-63"/>
     <use xlink:href="#DejaVuSans-6f" x="54.980469"/>
     <use xlink:href="#DejaVuSans-6d" x="116.162109"/>
     <use xlink:href="#DejaVuSans-70" x="213.574219"/>
     <use xlink:href="#DejaVuSans-6c" x="277.050781"/>
     <use xlink:href="#DejaVuSans-65" x="304.833984"/>
     <use xlink:href="#DejaVuSans-6a" x="366.357422"/>
     <use xlink:href="#DejaVuSans-6f" x="394.140625"/>
     <use xlink:href="#DejaVuSans-73" x="455.322266"/>
    </g>
   </g>
   <g id="text_8">
    <!-- Machine Learning e -->
    <g transform="translate(235.897228 154.334861) rotate(-300) scale(0.14 -0.14)">
     <defs>
      <path id="DejaVuSans-4d" d="M 628 4666 
L 1569 4666 
L 2759 1491 
L 3956 4666 
L 4897 4666 
L 4897 0 
L 4281 0 
L 4281 4097 
L 3078 897 
L 2444 897 
L 1241 4097 
L 1241 0 
L 628 0 
L 628 4666 
z
" transform="scale(0.015625)"/>
      <path id="DejaVuSans-4c" d="M 628 4666 
L 1259 4666 
L 1259 531 
L 3531 531 
L 3531 0 
L 628 0 
L 628 4666 
z
" transform="scale(0.015625)"/>
     </defs>
     <use xlink:href="#DejaVuSans-4d"/>
     <use xlink:href="#DejaVuSans-61" x="86.279297"/>
     <use xlink:href="#DejaVuSans-63" x="147.558594"/>
     <use xlink:href="#DejaVuSans-68" x="202.539062"/>
     <use xlink:href="#DejaVuSans-69" x="265.917969"/>
     <use xlink:href="#DejaVuSans-6e" x="293.701172"/>
     <use xlink:href="#DejaVuSans-65" x="357.080078"/>
     <use xlink:href="#DejaVuSans-20" x="418.603516"/>
     <use xlink:href="#DejaVuSans-4c" x="450.390625"/>
     <use xlink:href="#DejaVuSans-65" x="504.353516"/>
     <use xlink:href="#DejaVuSans-61" x="565.876953"/>
     <use xlink:href="#DejaVuSans-72" x="627.15625"/>
     <use xlink:href="#DejaVuSans-6e" x="666.519531"/>
     <use xlink:href="#DejaVuSans-69" x="729.898438"/>
     <use xlink:href="#DejaVuSans-6e" x="757.681641"/>
     <use xlink:href="#DejaVuSans-67" x="821.060547"/>
     <use xlink:href="#DejaVuSans-20" x="884.537109"/>
     <use xlink:href="#DejaVuSans-65" x="916.324219"/>
    </g>
    <!-- inteligencia artificial -->
    <g transform="translate(219.660602 157.566075) rotate(-300) scale(0.14 -0.14)">
     <use xlink:href="#DejaVuSans-69"/>
     <use xlink:href="#DejaVuSans-6e" x="27.783203"/>
     <use xlink:href="#DejaVuSans-74" x="91.162109"/>
     <use xlink:href="#DejaVuSans-65" x="130.371094"/>
     <use xlink:href="#DejaVuSans-6c" x="191.894531"/>
     <use xlink:href="#DejaVuSans-69" x="219.677734"/>
     <use xlink:href="#DejaVuSans-67" x="247.460938"/>
     <use xlink:href="#DejaVuSans-65" x="310.9375"/>
     <use xlink:href="#DejaVuSans-6e" x="372.460938"/>
     <use xlink:href="#DejaVuSans-63" x="435.839844"/>
     <use xlink:href="#DejaVuSans-69" x="490.820312"/>
     <use xlink:href="#DejaVuSans-61" x="518.603516"/>
     <use xlink:href="#DejaVuSans-20" x="579.882812"/>
     <use xlink:href="#DejaVuSans-61" x="611.669922"/>
     <use xlink:href="#DejaVuSans-72" x="672.949219"/>
     <use xlink:href="#DejaVuSans-74" x="714.0625"/>
     <use xlink:href="#DejaVuSans-69" x="753.271484"/>
     <use xlink:href="#DejaVuSans-66" x="781.054688"/>
     <use xlink:href="#DejaVuSans-69" x="816.259766"/>
     <use xlink:href="#DejaVuSans-63" x="844.042969"/>
     <use xlink:href="#DejaVuSans-69" x="899.023438"/>
     <use xlink:href="#DejaVuSans-61" x="926.806641"/>
     <use xlink:href="#DejaVuSans-6c" x="988.085938"/>
    </g>
    <!-- embebida -->
    <g transform="translate(242.195226 227.951063) rotate(-300) scale(0.14 -0.14)">
     <use xlink:href="#DejaVuSans-65"/>
     <use xlink:href="#DejaVuSans-6d" x="61.523438"/>
     <use xlink:href="#DejaVuSans-62" x="158.935547"/>
     <use xlink:href="#DejaVuSans-65" x="222.412109"/>
     <use xlink:href="#DejaVuSans-62" x="283.935547"/>
     <use xlink:href="#DejaVuSans-69" x="347.412109"/>
     <use xlink:href="#DejaVuSans-64" x="375.195312"/>
     <use xlink:href="#DejaVuSans-61" x="438.671875"/>
    </g>
   </g>
   <g id="text_9">
    <!-- Visión de máquina, robótica y -->
    <g transform="translate(65.294239 264.976606) rotate(-340) scale(0.14 -0.14)">
     <defs>
      <path id="DejaVuSans-56" d="M 1831 0 
L 50 4666 
L 709 4666 
L 2188 738 
L 3669 4666 
L 4325 4666 
L 2547 0 
L 1831 0 
z
" transform="scale(0.015625)"/>
      <path id="DejaVuSans-f3" d="M 1959 3097 
Q 1497 3097 1228 2736 
Q 959 2375 959 1747 
Q 959 1119 1226 758 
Q 1494 397 1959 397 
Q 2419 397 2687 759 
Q 2956 1122 2956 1747 
Q 2956 2369 2687 2733 
Q 2419 3097 1959 3097 
z
M 1959 3584 
Q 2709 3584 3137 3096 
Q 3566 2609 3566 1747 
Q 3566 888 3137 398 
Q 2709 -91 1959 -91 
Q 1206 -91 779 398 
Q 353 888 353 1747 
Q 353 2609 779 3096 
Q 1206 3584 1959 3584 
z
M 2394 5119 
L 3016 5119 
L 1998 3944 
L 1519 3944 
L 2394 5119 
z
" transform="scale(0.015625)"/>
      <path id="DejaVuSans-2c" d="M 750 794 
L 1409 794 
L 1409 256 
L 897 -744 
L 494 -744 
L 750 256 
L 750 794 
z
" transform="scale(0.015625)"/>
      <path id="DejaVuSans-79" d="M 2059 -325 
Q 1816 -950 1584 -1140 
Q 1353 -1331 966 -1331 
L 506 -1331 
L 506 -850 
L 844 -850 
Q 1081 -850 1212 -737 
Q 1344 -625 1503 -206 
L 1606 56 
L 191 3500 
L 800 3500 
L 1894 763 
L 2988 3500 
L 3597 3500 
L 2059 -325 
z
" transform="scale(0.015625)"/>
     </defs>
     <use xlink:href="#DejaVuSans-56"/>
     <use xlink:href="#DejaVuSans-69" x="66.158203"/>
     <use xlink:href="#DejaVuSans-73" x="93.941406"/>
     <use xlink:href="#DejaVuSans-69" x="146.041016"/>
     <use xlink:href="#DejaVuSans-f3" x="173.824219"/>
     <use xlink:href="#DejaVuSans-6e" x="235.005859"/>
     <use xlink:href="#DejaVuSans-20" x="298.384766"/>
     <use xlink:href="#DejaVuSans-64" x="330.171875"/>
     <use xlink:href="#DejaVuSans-65" x="393.648438"/>
     <use xlink:href="#DejaVuSans-20" x="455.171875"/>
     <use xlink:href="#DejaVuSans-6d" x="486.958984"/>
     <use xlink:href="#DejaVuSans-e1" x="584.371094"/>
     <use xlink:href="#DejaVuSans-71" x="645.650391"/>
     <use xlink:href="#DejaVuSans-75" x="709.126953"/>
     <use xlink:href="#DejaVuSans-69" x="772.505859"/>
     <use xlink:href="#DejaVuSans-6e" x="800.289062"/>
     <use xlink:href="#DejaVuSans-61" x="863.667969"/>
     <use xlink:href="#DejaVuSans-2c" x="924.947266"/>
     <use xlink:href="#DejaVuSans-20" x="956.734375"/>
     <use xlink:href="#DejaVuSans-72" x="988.521484"/>
     <use xlink:href="#DejaVuSans-6f" x="1027.384766"/>
     <use xlink:href="#DejaVuSans-62" x="1088.566406"/>
     <use xlink:href="#DejaVuSans-f3" x="1152.042969"/>
     <use xlink:href="#DejaVuSans-74" x="1213.224609"/>
     <use xlink:href="#DejaVuSans-69" x="1252.433594"/>
     <use xlink:href="#DejaVuSans-63" x="1280.216797"/>
     <use xlink:href="#DejaVuSans-61" x="1335.197266"/>
     <use xlink:href="#DejaVuSans-20" x="1396.476562"/>
     <use xlink:href="#DejaVuSans-79" x="1428.263672"/>
    </g>
    <!-- domótica -->
    <g transform="translate(194.241796 328.592727) rotate(-340) scale(0.14 -0.14)">
     <use xlink:href="#DejaVuSans-64"/>
     <use xlink:href="#DejaVuSans-6f" x="63.476562"/>
     <use xlink:href="#DejaVuSans-6d" x="124.658203"/>
     <use xlink:href="#DejaVuSans-f3" x="222.070312"/>
     <use xlink:href="#DejaVuSans-74" x="283.251953"/>
     <use xlink:href="#DejaVuSans-69" x="322.460938"/>
     <use xlink:href="#DejaVuSans-63" x="350.244141"/>
     <use xlink:href="#DejaVuSans-61" x="405.224609"/>
    </g>
   </g>
   <g id="text_10">
    <!-- Internet de las cosas -->
    <g transform="translate(131.595149 461.328823) rotate(-20) scale(0.14 -0.14)">
     <use xlink:href="#DejaVuSans-49"/>
     <use xlink:href="#DejaVuSans-6e" x="29.492188"/>
     <use xlink:href="#DejaVuSans-74" x="92.871094"/>
     <use xlink:href="#DejaVuSans-65" x="132.080078"/>
     <use xlink:href="#DejaVuSans-72" x="193.603516"/>
     <use xlink:href="#DejaVuSans-6e" x="232.966797"/>
     <use xlink:href="#DejaVuSans-65" x="296.345703"/>
     <use xlink:href="#DejaVuSans-74" x="357.869141"/>
     <use xlink:href="#DejaVuSans-20" x="397.078125"/>
     <use xlink:href="#DejaVuSans-64" x="428.865234"/>
     <use xlink:href="#DejaVuSans-65" x="492.341797"/>
     <use xlink:href="#DejaVuSans-20" x="553.865234"/>
     <use xlink:href="#DejaVuSans-6c" x="585.652344"/>
     <use xlink:href="#DejaVuSans-61" x="613.435547"/>
     <use xlink:href="#DejaVuSans-73" x="674.714844"/>
     <use xlink:href="#DejaVuSans-20" x="726.814453"/>
     <use xlink:href="#DejaVuSans-63" x="758.601562"/>
     <use xlink:href="#DejaVuSans-6f" x="813.582031"/>
     <use xlink:href="#DejaVuSans-73" x="874.763672"/>
     <use xlink:href="#DejaVuSans-61" x="926.863281"/>
     <use xlink:href="#DejaVuSans-73" x="988.142578"/>
    </g>
   </g>
   <g id="text_11">
    <!-- Ciberseguridad -->
    <g transform="translate(269.47746 557.253721) rotate(-60) scale(0.14 -0.14)">
     <defs>
      <path id="DejaVuSans-43" d="M 4122 4306 
L 4122 3641 
Q 3803 3938 3442 4084 
Q 3081 4231 2675 4231 
Q 1875 4231 1450 3742 
Q 1025 3253 1025 2328 
Q 1025 1406 1450 917 
Q 1875 428 2675 428 
Q 3081 428 3442 575 
Q 3803 722 4122 1019 
L 4122 359 
Q 3791 134 3420 21 
Q 3050 -91 2638 -91 
Q 1578 -91 968 557 
Q 359 1206 359 2328 
Q 359 3453 968 4101 
Q 1578 4750 2638 4750 
Q 3056 4750 3426 4639 
Q 3797 4528 4122 4306 
z
" transform="scale(0.015625)"/>
     </defs>
     <use xlink:href="#DejaVuSans-43"/>
     <use xlink:href="#DejaVuSans-69" x="69.824219"/>
     <use xlink:href="#DejaVuSans-62" x="97.607422"/>
     <use xlink:href="#DejaVuSans-65" x="161.083984"/>
     <use xlink:href="#DejaVuSans-72" x="222.607422"/>
     <use xlink:href="#DejaVuSans-73" x="263.720703"/>
     <use xlink:href="#DejaVuSans-65" x="315.820312"/>
     <use xlink:href="#DejaVuSans-67" x="377.34375"/>
     <use xlink:href="#DejaVuSans-75" x="440.820312"/>
     <use xlink:href="#DejaVuSans-72" x="504.199219"/>
     <use xlink:href="#DejaVuSans-69" x="545.3125"/>
     <use xlink:href="#DejaVuSans-64" x="573.095703"/>
     <use xlink:href="#DejaVuSans-61" x="636.572266"/>
     <use xlink:href="#DejaVuSans-64" x="697.851562"/>
    </g>
   </g>
   <g id="text_12">
    <!-- Liderazgo e inclusión -->
    <g transform="translate(377.226417 474.739963) rotate(-280) scale(0.14 -0.14)">
     <use xlink:href="#DejaVuSans-4c"/>
     <use xlink:href="#DejaVuSans-69" x="55.712891"/>
     <use xlink:href="#DejaVuSans-64" x="83.496094"/>
     <use xlink:href="#DejaVuSans-65" x="146.972656"/>
     <use xlink:href="#DejaVuSans-72" x="208.496094"/>
     <use xlink:href="#DejaVuSans-61" x="249.609375"/>
     <use xlink:href="#DejaVuSans-7a" x="310.888672"/>
     <use xlink:href="#DejaVuSans-67" x="363.378906"/>
     <use xlink:href="#DejaVuSans-6f" x="426.855469"/>
     <use xlink:href="#DejaVuSans-20" x="488.037109"/>
     <use xlink:href="#DejaVuSans-65" x="519.824219"/>
     <use xlink:href="#DejaVuSans-20" x="581.347656"/>
     <use xlink:href="#DejaVuSans-69" x="613.134766"/>
     <use xlink:href="#DejaVuSans-6e" x="640.917969"/>
     <use xlink:href="#DejaVuSans-63" x="704.296875"/>
     <use xlink:href="#DejaVuSans-6c" x="759.277344"/>
     <use xlink:href="#DejaVuSans-75" x="787.060547"/>
     <use xlink:href="#DejaVuSans-73" x="850.439453"/>
     <use xlink:href="#DejaVuSans-69" x="902.539062"/>
     <use xlink:href="#DejaVuSans-f3" x="930.322266"/>
     <use xlink:href="#DejaVuSans-6e" x="991.503906"/>
    </g>
   </g>
   <g id="text_13">
    <!-- Sostenibilidad e impacto -->
    <g transform="translate(447.101154 443.021327) rotate(-320) scale(0.14 -0.14)">
     <use xlink:href="#DejaVuSans-53"/>
     <use xlink:href="#DejaVuSans-6f" x="63.476562"/>
     <use xlink:href="#DejaVuSans-73" x="124.658203"/>
     <use xlink:href="#DejaVuSans-74" x="176.757812"/>
     <use xlink:href="#DejaVuSans-65" x="215.966797"/>
     <use xlink:href="#DejaVuSans-6e" x="277.490234"/>
     <use xlink:href="#DejaVuSans-69" x="340.869141"/>
     <use xlink:href="#DejaVuSans-62" x="368.652344"/>
     <use xlink:href="#DejaVuSans-69" x="432.128906"/>
     <use xlink:href="#DejaVuSans-6c" x="459.912109"/>
     <use xlink:href="#DejaVuSans-69" x="487.695312"/>
     <use xlink:href="#DejaVuSans-64" x="515.478516"/>
     <use xlink:href="#DejaVuSans-61" x="578.955078"/>
     <use xlink:href="#DejaVuSans-64" x="640.234375"/>
     <use xlink:href="#DejaVuSans-20" x="703.710938"/>
     <use xlink:href="#DejaVuSans-65" x="735.498047"/>
     <use xlink:href="#DejaVuSans-20" x="797.021484"/>
     <use xlink:href="#DejaVuSans-69" x="828.808594"/>
     <use xlink:href="#DejaVuSans-6d" x="856.591797"/>
     <use xlink:href="#DejaVuSans-70" x="954.003906"/>
     <use xlink:href="#DejaVuSans-61" x="1017.480469"/>
     <use xlink:href="#DejaVuSans-63" x="1078.759766"/>
     <use xlink:href="#DejaVuSans-74" x="1133.740234"/>
     <use xlink:href="#DejaVuSans-6f" x="1172.949219"/>
    </g>
    <!-- social de la ingeniería -->
    <g transform="translate(436.592259 455.54534) rotate(-320) scale(0.14 -0.14)">
     <use xlink:href="#DejaVuSans-73"/>
     <use xlink:href="#DejaVuSans-6f" x="52.099609"/>
     <use xlink:href="#DejaVuSans-63" x="113.28125"/>
     <use xlink:href="#DejaVuSans-69" x="168.261719"/>
     <use xlink:href="#DejaVuSans-61" x="196.044922"/>
     <use xlink:href="#DejaVuSans-6c" x="257.324219"/>
     <use xlink:href="#DejaVuSans-20" x="285.107422"/>
     <use xlink:href="#DejaVuSans-64" x="316.894531"/>
     <use xlink:href="#DejaVuSans-65" x="380.371094"/>
     <use xlink:href="#DejaVuSans-20" x="441.894531"/>
     <use xlink:href="#DejaVuSans-6c" x="473.681641"/>
     <use xlink:href="#DejaVuSans-61" x="501.464844"/>
     <use xlink:href="#DejaVuSans-20" x="562.744141"/>
     <use xlink:href="#DejaVuSans-69" x="594.53125"/>
     <use xlink:href="#DejaVuSans-6e" x="622.314453"/>
     <use xlink:href="#DejaVuSans-67" x="685.693359"/>
     <use xlink:href="#DejaVuSans-65" x="749.169922"/>
     <use xlink:href="#DejaVuSans-6e" x="810.693359"/>
     <use xlink:href="#DejaVuSans-69" x="874.072266"/>
     <use xlink:href="#DejaVuSans-65" x="901.855469"/>
     <use xlink:href="#DejaVuSans-72" x="963.378906"/>
     <use xlink:href="#DejaVuSans-ed" x="1004.492188"/>
     <use xlink:href="#DejaVuSans-61" x="1032.275391"/>
    </g>
   </g>
   <g id="text_14">
    <!-- Sistemas ciberfísicos -->
    <g style="fill: #0000ff" transform="translate(274.799531 24.96) scale(0.18 -0.18)">
     <use xlink:href="#DejaVuSans-53"/>
     <use xlink:href="#DejaVuSans-69" x="63.476562"/>
     <use xlink:href="#DejaVuSans-73" x="91.259766"/>
     <use xlink:href="#DejaVuSans-74" x="143.359375"/>
     <use xlink:href="#DejaVuSans-65" x="182.568359"/>
     <use xlink:href="#DejaVuSans-6d" x="244.091797"/>
     <use xlink:href="#DejaVuSans-61" x="341.503906"/>
     <use xlink:href="#DejaVuSans-73" x="402.783203"/>
     <use xlink:href="#DejaVuSans-20" x="454.882812"/>
     <use xlink:href="#DejaVuSans-63" x="486.669922"/>
     <use xlink:href="#DejaVuSans-69" x="541.650391"/>
     <use xlink:href="#DejaVuSans-62" x="569.433594"/>
     <use xlink:href="#DejaVuSans-65" x="632.910156"/>
     <use xlink:href="#DejaVuSans-72" x="694.433594"/>
     <use xlink:href="#DejaVuSans-66" x="735.546875"/>
     <use xlink:href="#DejaVuSans-ed" x="770.751953"/>
     <use xlink:href="#DejaVuSans-73" x="798.535156"/>
     <use xlink:href="#DejaVuSans-69" x="850.634766"/>
     <use xlink:href="#DejaVuSans-63" x="878.417969"/>
     <use xlink:href="#DejaVuSans-6f" x="933.398438"/>
     <use xlink:href="#DejaVuSans-73" x="994.580078"/>
    </g>
   </g>
  </g>
 </g>
 <defs>
  <clipPath id="p319efd00b8">
   <path d="M 646.2 363.6 
C 646.2 327.19843 639.029684 291.150818 625.099406 257.520153 
C 611.169128 223.889487 590.749797 193.329798 565.01 167.59 
C 539.270202 141.850203 508.710513 121.430872 475.079847 107.500594 
C 441.449182 93.570316 405.40157 86.4 369 86.4 
C 332.59843 86.4 296.550818 93.570316 262.920153 107.500594 
C 229.289487 121.430872 198.729798 141.850203 172.99 167.59 
C 147.250203 193.329798 126.830872 223.889487 112.900594 257.520153 
C 98.970316 291.150818 91.8 327.19843 91.8 363.6 
C 91.8 400.00157 98.970316 436.049182 112.900594 469.679847 
C 126.830872 503.310513 147.250203 533.870202 172.99 559.61 
C 198.729798 585.349797 229.289487 605.769128 262.920153 619.699406 
C 296.550818 633.629684 332.59843 640.8 369 640.8 
C 405.40157 640.8 441.449182 633.629684 475.079847 619.699406 
C 508.710513 605.769128 539.270202 585.349797 565.01 559.61 
C 590.749797 533.870202 611.169128 503.310513 625.099406 469.679847 
C 639.029684 436.049182 646.2 400.00157 646.2 363.6 
M 369 363.6 
C 369 363.6 369 363.6 369 363.6 
C 369 363.6 369 363.6 369 363.6 
C 369 363.6 369 363.6 369 363.6 
C 369 363.6 369 363.6 369 363.6 
C 369 363.6 369 363.6 369 363.6 
C 369 363.6 369 363.6 369 363.6 
C 369 363.6 369 363.6 369 363.6 
C 369 363.6 369 363.6 369 363.6 
C 369 363.6 369 363.6 369 363.6 
C 369 363.6 369 363.6 369 363.6 
C 369 363.6 369 363.6 369 363.6 
C 369 363.6 369 363.6 369 363.6 
C 369 363.6 369 363.6 369 363.6 
C 369 363.6 369 363.6 369 363.6 
C 369 363.6 369 363.6 369 363.6 
C 369 363.6 369 363.6 369 363.6 
z
"/>
  </clipPath>
 </defs>
</svg>
