<?xml version="1.0" encoding="utf-8" standalone="no"?>
<!DOCTYPE svg PUBLIC "-//W3C//DTD SVG 1.1//EN"
  "http://www.w3.org/Graphics/SVG/1.1/DTD/svg11.dtd">
<svg xmlns:xlink="http://www.w3.org/1999/xlink" width="720pt" height="720pt" viewBox="0 0 720 720" xmlns="http://www.w3.org/2000/svg" version="1.1">
 <metadata>
  <rdf:RDF xmlns:dc="http://purl.org/dc/elements/1.1/" xmlns:cc="http://creativecommons.org/ns#" xmlns:rdf="http://www.w3.org/1999/02/22-rdf-syntax-ns#">
   <cc:Work>
    <dc:type rdf:resource="http://purl.org/dc/dcmitype/StillImage"/>
    <dc:date>2025-05-28T14:51:46.968678</dc:date>
    <dc:format>image/svg+xml</dc:format>
    <dc:creator>
     <cc:Agent>
      <dc:title>Matplotlib v3.10.3, https://matplotlib.org/</dc:title>
     </cc:Agent>
    </dc:creator>
   </cc:Work>
  </rdf:RDF>
 </metadata>
 <defs>
  <style type="text/css">*{stroke-linejoin: round; stroke-linecap: butt}</style>
 </defs>
 <g id="figure_1">
  <g id="patch_1">
   <path d="M 0 720 
L 720 720 
L 720 0 
L 0 0 
z
" style="fill: #ffffff"/>
  </g>
  <g id="axes_1">
   <g id="patch_2">
    <path d="M 646.2 363.6 
C 646.2 327.19843 639.029684 291.150818 625.099406 257.520153 
C 611.169128 223.889487 590.749797 193.329798 565.01 167.59 
C 539.270202 141.850203 508.710513 121.430872 475.079847 107.500594 
C 441.449182 93.570316 405.40157 86.4 369 86.4 
C 332.59843 86.4 296.550818 93.570316 262.920153 107.500594 
C 229.289487 121.430872 198.729798 141.850203 172.99 167.59 
C 147.250203 193.329798 126.830872 223.889487 112.900594 257.520153 
C 98.970316 291.150818 91.8 327.19843 91.8 363.6 
C 91.8 400.00157 98.970316 436.049182 112.900594 469.679847 
C 126.830872 503.310513 147.250203 533.870202 172.99 559.61 
C 198.729798 585.349797 229.289487 605.769128 262.920153 619.699406 
C 296.550818 633.629684 332.59843 640.8 369 640.8 
C 405.40157 640.8 441.449182 633.629684 475.079847 619.699406 
C 508.710513 605.769128 539.270202 585.349797 565.01 559.61 
C 590.749797 533.870202 611.169128 503.310513 625.099406 469.679847 
C 639.029684 436.049182 646.2 400.00157 646.2 363.6 
M 369 363.6 
C 369 363.6 369 363.6 369 363.6 
C 369 363.6 369 363.6 369 363.6 
C 369 363.6 369 363.6 369 363.6 
C 369 363.6 369 363.6 369 363.6 
C 369 363.6 369 363.6 369 363.6 
C 369 363.6 369 363.6 369 363.6 
C 369 363.6 369 363.6 369 363.6 
C 369 363.6 369 363.6 369 363.6 
C 369 363.6 369 363.6 369 363.6 
C 369 363.6 369 363.6 369 363.6 
C 369 363.6 369 363.6 369 363.6 
C 369 363.6 369 363.6 369 363.6 
C 369 363.6 369 363.6 369 363.6 
C 369 363.6 369 363.6 369 363.6 
C 369 363.6 369 363.6 369 363.6 
C 369 363.6 369 363.6 369 363.6 
z
" style="fill: #f7f7f7"/>
   </g>
   <g id="patch_3">
    <path d="M 403.65 363.6 
L 437.268392 277.994144 
L 307.625611 94.701233 
L 299.0704 329.92368 
L 272.8468 409.90494 
L 328.597764 540.613761 
L 527.140706 561.902174 
z
" clip-path="url(#p1705f425ff)" style="fill: #008080; opacity: 0.4; stroke: #008080; stroke-linejoin: miter"/>
   </g>
   <g id="matplotlib.axis_1">
    <g id="xtick_1">
     <g id="line2d_1">
      <path d="M 369 363.6 
L 646.2 363.6 
" clip-path="url(#p1705f425ff)" style="fill: none; stroke-dasharray: 1.85,0.8; stroke-dashoffset: 0; stroke: #808080; stroke-width: 0.5"/>
     </g>
    </g>
    <g id="xtick_2">
     <g id="line2d_2">
      <path d="M 369 363.6 
L 541.831373 146.876313 
" clip-path="url(#p1705f425ff)" style="fill: none; stroke-dasharray: 1.85,0.8; stroke-dashoffset: 0; stroke: #808080; stroke-width: 0.5"/>
     </g>
    </g>
    <g id="xtick_3">
     <g id="line2d_3">
      <path d="M 369 363.6 
L 307.317197 93.349983 
" clip-path="url(#p1705f425ff)" style="fill: none; stroke-dasharray: 1.85,0.8; stroke-dashoffset: 0; stroke: #808080; stroke-width: 0.5"/>
     </g>
    </g>
    <g id="xtick_4">
     <g id="line2d_4">
      <path d="M 369 363.6 
L 119.25143 243.327428 
" clip-path="url(#p1705f425ff)" style="fill: none; stroke-dasharray: 1.85,0.8; stroke-dashoffset: 0; stroke: #808080; stroke-width: 0.5"/>
     </g>
    </g>
    <g id="xtick_5">
     <g id="line2d_5">
      <path d="M 369 363.6 
L 119.25143 483.872572 
" clip-path="url(#p1705f425ff)" style="fill: none; stroke-dasharray: 1.85,0.8; stroke-dashoffset: 0; stroke: #808080; stroke-width: 0.5"/>
     </g>
    </g>
    <g id="xtick_6">
     <g id="line2d_6">
      <path d="M 369 363.6 
L 307.317197 633.850017 
" clip-path="url(#p1705f425ff)" style="fill: none; stroke-dasharray: 1.85,0.8; stroke-dashoffset: 0; stroke: #808080; stroke-width: 0.5"/>
     </g>
    </g>
    <g id="xtick_7">
     <g id="line2d_7">
      <path d="M 369 363.6 
L 541.831373 580.323687 
" clip-path="url(#p1705f425ff)" style="fill: none; stroke-dasharray: 1.85,0.8; stroke-dashoffset: 0; stroke: #808080; stroke-width: 0.5"/>
     </g>
    </g>
   </g>
   <g id="matplotlib.axis_2">
    <g id="ytick_1">
     <g id="line2d_8">
      <path d="M 438.3 363.6 
C 438.3 354.499607 436.507421 345.487705 433.024852 337.080038 
C 429.542282 328.672372 424.437449 321.032449 418.0025 314.5975 
C 411.567551 308.162551 403.927628 303.057718 395.519962 299.575148 
C 387.112295 296.092579 378.100393 294.3 369 294.3 
C 359.899607 294.3 350.887705 296.092579 342.480038 299.575148 
C 334.072372 303.057718 326.432449 308.162551 319.9975 314.5975 
C 313.562551 321.032449 308.457718 328.672372 304.975148 337.080038 
C 301.492579 345.487705 299.7 354.499607 299.7 363.6 
C 299.7 372.700393 301.492579 381.712295 304.975148 390.119962 
C 308.457718 398.527628 313.562551 406.167551 319.9975 412.6025 
C 326.432449 419.037449 334.072372 424.142282 342.480038 427.624852 
C 350.887705 431.107421 359.899607 432.9 369 432.9 
C 378.100393 432.9 387.112295 431.107421 395.519962 427.624852 
C 403.927628 424.142282 411.567551 419.037449 418.0025 412.6025 
C 424.437449 406.167551 429.542282 398.527628 433.024852 390.119962 
C 436.507421 381.712295 438.3 372.700393 438.3 363.6 
" clip-path="url(#p1705f425ff)" style="fill: none; stroke-dasharray: 1.85,0.8; stroke-dashoffset: 0; stroke: #808080; stroke-width: 0.5"/>
     </g>
     <g id="text_1">
      <!-- 5% -->
      <g style="fill: #808080" transform="translate(438.3 360.688437) scale(0.14 -0.14)">
       <defs>
        <path id="DejaVuSans-35" d="M 691 4666 
L 3169 4666 
L 3169 4134 
L 1269 4134 
L 1269 2991 
Q 1406 3038 1543 3061 
Q 1681 3084 1819 3084 
Q 2600 3084 3056 2656 
Q 3513 2228 3513 1497 
Q 3513 744 3044 326 
Q 2575 -91 1722 -91 
Q 1428 -91 1123 -41 
Q 819 9 494 109 
L 494 744 
Q 775 591 1075 516 
Q 1375 441 1709 441 
Q 2250 441 2565 725 
Q 2881 1009 2881 1497 
Q 2881 1984 2565 2268 
Q 2250 2553 1709 2553 
Q 1456 2553 1204 2497 
Q 953 2441 691 2322 
L 691 4666 
z
" transform="scale(0.015625)"/>
        <path id="DejaVuSans-25" d="M 4653 2053 
Q 4381 2053 4226 1822 
Q 4072 1591 4072 1178 
Q 4072 772 4226 539 
Q 4381 306 4653 306 
Q 4919 306 5073 539 
Q 5228 772 5228 1178 
Q 5228 1588 5073 1820 
Q 4919 2053 4653 2053 
z
M 4653 2450 
Q 5147 2450 5437 2106 
Q 5728 1763 5728 1178 
Q 5728 594 5436 251 
Q 5144 -91 4653 -91 
Q 4153 -91 3862 251 
Q 3572 594 3572 1178 
Q 3572 1766 3864 2108 
Q 4156 2450 4653 2450 
z
M 1428 4353 
Q 1159 4353 1004 4120 
Q 850 3888 850 3481 
Q 850 3069 1003 2837 
Q 1156 2606 1428 2606 
Q 1700 2606 1854 2837 
Q 2009 3069 2009 3481 
Q 2009 3884 1853 4118 
Q 1697 4353 1428 4353 
z
M 4250 4750 
L 4750 4750 
L 1831 -91 
L 1331 -91 
L 4250 4750 
z
M 1428 4750 
Q 1922 4750 2215 4408 
Q 2509 4066 2509 3481 
Q 2509 2891 2217 2550 
Q 1925 2209 1428 2209 
Q 931 2209 642 2551 
Q 353 2894 353 3481 
Q 353 4063 643 4406 
Q 934 4750 1428 4750 
z
" transform="scale(0.015625)"/>
       </defs>
       <use xlink:href="#DejaVuSans-35"/>
       <use xlink:href="#DejaVuSans-25" transform="translate(63.623047 0)"/>
      </g>
     </g>
    </g>
    <g id="ytick_2">
     <g id="line2d_9">
      <path d="M 507.6 363.6 
C 507.6 345.399215 504.014842 327.375409 497.049703 310.560076 
C 490.084564 293.744743 479.874899 278.464899 467.005 265.595 
C 454.135101 252.725101 438.855257 242.515436 422.039924 235.550297 
C 405.224591 228.585158 387.200785 225 369 225 
C 350.799215 225 332.775409 228.585158 315.960076 235.550297 
C 299.144743 242.515436 283.864899 252.725101 270.995 265.595 
C 258.125101 278.464899 247.915436 293.744743 240.950297 310.560076 
C 233.985158 327.375409 230.4 345.399215 230.4 363.6 
C 230.4 381.800785 233.985158 399.824591 240.950297 416.639924 
C 247.915436 433.455257 258.125101 448.735101 270.995 461.605 
C 283.864899 474.474899 299.144743 484.684564 315.960076 491.649703 
C 332.775409 498.614842 350.799215 502.2 369 502.2 
C 387.200785 502.2 405.224591 498.614842 422.039924 491.649703 
C 438.855257 484.684564 454.135101 474.474899 467.005 461.605 
C 479.874899 448.735101 490.084564 433.455257 497.049703 416.639924 
C 504.014842 399.824591 507.6 381.800785 507.6 363.6 
" clip-path="url(#p1705f425ff)" style="fill: none; stroke-dasharray: 1.85,0.8; stroke-dashoffset: 0; stroke: #808080; stroke-width: 0.5"/>
     </g>
     <g id="text_2">
      <!-- 10% -->
      <g style="fill: #808080" transform="translate(507.6 360.688437) scale(0.14 -0.14)">
       <defs>
        <path id="DejaVuSans-31" d="M 794 531 
L 1825 531 
L 1825 4091 
L 703 3866 
L 703 4441 
L 1819 4666 
L 2450 4666 
L 2450 531 
L 3481 531 
L 3481 0 
L 794 0 
L 794 531 
z
" transform="scale(0.015625)"/>
        <path id="DejaVuSans-30" d="M 2034 4250 
Q 1547 4250 1301 3770 
Q 1056 3291 1056 2328 
Q 1056 1369 1301 889 
Q 1547 409 2034 409 
Q 2525 409 2770 889 
Q 3016 1369 3016 2328 
Q 3016 3291 2770 3770 
Q 2525 4250 2034 4250 
z
M 2034 4750 
Q 2819 4750 3233 4129 
Q 3647 3509 3647 2328 
Q 3647 1150 3233 529 
Q 2819 -91 2034 -91 
Q 1250 -91 836 529 
Q 422 1150 422 2328 
Q 422 3509 836 4129 
Q 1250 4750 2034 4750 
z
" transform="scale(0.015625)"/>
       </defs>
       <use xlink:href="#DejaVuSans-31"/>
       <use xlink:href="#DejaVuSans-30" transform="translate(63.623047 0)"/>
       <use xlink:href="#DejaVuSans-25" transform="translate(127.246094 0)"/>
      </g>
     </g>
    </g>
    <g id="ytick_3">
     <g id="line2d_10">
      <path d="M 576.9 363.6 
C 576.9 336.298822 571.522263 309.263114 561.074555 284.040114 
C 550.626846 258.817115 535.312348 235.897348 516.0075 216.5925 
C 496.702652 197.287652 473.782885 181.973154 448.559886 171.525445 
C 423.336886 161.077737 396.301178 155.7 369 155.7 
C 341.698822 155.7 314.663114 161.077737 289.440114 171.525445 
C 264.217115 181.973154 241.297348 197.287652 221.9925 216.5925 
C 202.687652 235.897348 187.373154 258.817115 176.925445 284.040114 
C 166.477737 309.263114 161.1 336.298822 161.1 363.6 
C 161.1 390.901178 166.477737 417.936886 176.925445 443.159886 
C 187.373154 468.382885 202.687652 491.302652 221.9925 510.6075 
C 241.297348 529.912348 264.217115 545.226846 289.440114 555.674555 
C 314.663114 566.122263 341.698822 571.5 369 571.5 
C 396.301178 571.5 423.336886 566.122263 448.559886 555.674555 
C 473.782885 545.226846 496.702652 529.912348 516.0075 510.6075 
C 535.312348 491.302652 550.626846 468.382885 561.074555 443.159886 
C 571.522263 417.936886 576.9 390.901178 576.9 363.6 
" clip-path="url(#p1705f425ff)" style="fill: none; stroke-dasharray: 1.85,0.8; stroke-dashoffset: 0; stroke: #808080; stroke-width: 0.5"/>
     </g>
     <g id="text_3">
      <!-- 15% -->
      <g style="fill: #808080" transform="translate(576.9 360.688437) scale(0.14 -0.14)">
       <use xlink:href="#DejaVuSans-31"/>
       <use xlink:href="#DejaVuSans-35" transform="translate(63.623047 0)"/>
       <use xlink:href="#DejaVuSans-25" transform="translate(127.246094 0)"/>
      </g>
     </g>
    </g>
    <g id="ytick_4">
     <g id="line2d_11">
      <path d="M 646.2 363.6 
C 646.2 327.19843 639.029684 291.150818 625.099406 257.520153 
C 611.169128 223.889487 590.749797 193.329798 565.01 167.59 
C 539.270202 141.850203 508.710513 121.430872 475.079847 107.500594 
C 441.449182 93.570316 405.40157 86.4 369 86.4 
C 332.59843 86.4 296.550818 93.570316 262.920153 107.500594 
C 229.289487 121.430872 198.729798 141.850203 172.99 167.59 
C 147.250203 193.329798 126.830872 223.889487 112.900594 257.520153 
C 98.970316 291.150818 91.8 327.19843 91.8 363.6 
C 91.8 400.00157 98.970316 436.049182 112.900594 469.679847 
C 126.830872 503.310513 147.250203 533.870202 172.99 559.61 
C 198.729798 585.349797 229.289487 605.769128 262.920153 619.699406 
C 296.550818 633.629684 332.59843 640.8 369 640.8 
C 405.40157 640.8 441.449182 633.629684 475.079847 619.699406 
C 508.710513 605.769128 539.270202 585.349797 565.01 559.61 
C 590.749797 533.870202 611.169128 503.310513 625.099406 469.679847 
C 639.029684 436.049182 646.2 400.00157 646.2 363.6 
" clip-path="url(#p1705f425ff)" style="fill: none; stroke-dasharray: 1.85,0.8; stroke-dashoffset: 0; stroke: #808080; stroke-width: 0.5"/>
     </g>
     <g id="text_4">
      <!-- 20% -->
      <g style="fill: #808080" transform="translate(646.2 360.688437) scale(0.14 -0.14)">
       <defs>
        <path id="DejaVuSans-32" d="M 1228 531 
L 3431 531 
L 3431 0 
L 469 0 
L 469 531 
Q 828 903 1448 1529 
Q 2069 2156 2228 2338 
Q 2531 2678 2651 2914 
Q 2772 3150 2772 3378 
Q 2772 3750 2511 3984 
Q 2250 4219 1831 4219 
Q 1534 4219 1204 4116 
Q 875 4013 500 3803 
L 500 4441 
Q 881 4594 1212 4672 
Q 1544 4750 1819 4750 
Q 2544 4750 2975 4387 
Q 3406 4025 3406 3419 
Q 3406 3131 3298 2873 
Q 3191 2616 2906 2266 
Q 2828 2175 2409 1742 
Q 1991 1309 1228 531 
z
" transform="scale(0.015625)"/>
       </defs>
       <use xlink:href="#DejaVuSans-32"/>
       <use xlink:href="#DejaVuSans-30" transform="translate(63.623047 0)"/>
       <use xlink:href="#DejaVuSans-25" transform="translate(127.246094 0)"/>
      </g>
     </g>
    </g>
   </g>
   <g id="line2d_12">
    <path d="M 403.65 363.6 
L 437.268392 277.994144 
L 307.625611 94.701233 
L 299.0704 329.92368 
L 272.8468 409.90494 
L 328.597764 540.613761 
L 527.140706 561.902174 
L 403.65 363.6 
" clip-path="url(#p1705f425ff)" style="fill: none; stroke: #008080; stroke-width: 2; stroke-linecap: square"/>
   </g>
   <g id="text_5">
    <!-- Analisís de datos -->
    <g transform="translate(479.88 374.237812) scale(0.14 -0.14)">
     <defs>
      <path id="DejaVuSans-41" d="M 2188 4044 
L 1331 1722 
L 3047 1722 
L 2188 4044 
z
M 1831 4666 
L 2547 4666 
L 4325 0 
L 3669 0 
L 3244 1197 
L 1141 1197 
L 716 0 
L 50 0 
L 1831 4666 
z
" transform="scale(0.015625)"/>
      <path id="DejaVuSans-6e" d="M 3513 2113 
L 3513 0 
L 2938 0 
L 2938 2094 
Q 2938 2591 2744 2837 
Q 2550 3084 2163 3084 
Q 1697 3084 1428 2787 
Q 1159 2491 1159 1978 
L 1159 0 
L 581 0 
L 581 3500 
L 1159 3500 
L 1159 2956 
Q 1366 3272 1645 3428 
Q 1925 3584 2291 3584 
Q 2894 3584 3203 3211 
Q 3513 2838 3513 2113 
z
" transform="scale(0.015625)"/>
      <path id="DejaVuSans-61" d="M 2194 1759 
Q 1497 1759 1228 1600 
Q 959 1441 959 1056 
Q 959 750 1161 570 
Q 1363 391 1709 391 
Q 2188 391 2477 730 
Q 2766 1069 2766 1631 
L 2766 1759 
L 2194 1759 
z
M 3341 1997 
L 3341 0 
L 2766 0 
L 2766 531 
Q 2569 213 2275 61 
Q 1981 -91 1556 -91 
Q 1019 -91 701 211 
Q 384 513 384 1019 
Q 384 1609 779 1909 
Q 1175 2209 1959 2209 
L 2766 2209 
L 2766 2266 
Q 2766 2663 2505 2880 
Q 2244 3097 1772 3097 
Q 1472 3097 1187 3025 
Q 903 2953 641 2809 
L 641 3341 
Q 956 3463 1253 3523 
Q 1550 3584 1831 3584 
Q 2591 3584 2966 3190 
Q 3341 2797 3341 1997 
z
" transform="scale(0.015625)"/>
      <path id="DejaVuSans-6c" d="M 603 4863 
L 1178 4863 
L 1178 0 
L 603 0 
L 603 4863 
z
" transform="scale(0.015625)"/>
      <path id="DejaVuSans-69" d="M 603 3500 
L 1178 3500 
L 1178 0 
L 603 0 
L 603 3500 
z
M 603 4863 
L 1178 4863 
L 1178 4134 
L 603 4134 
L 603 4863 
z
" transform="scale(0.015625)"/>
      <path id="DejaVuSans-73" d="M 2834 3397 
L 2834 2853 
Q 2591 2978 2328 3040 
Q 2066 3103 1784 3103 
Q 1356 3103 1142 2972 
Q 928 2841 928 2578 
Q 928 2378 1081 2264 
Q 1234 2150 1697 2047 
L 1894 2003 
Q 2506 1872 2764 1633 
Q 3022 1394 3022 966 
Q 3022 478 2636 193 
Q 2250 -91 1575 -91 
Q 1294 -91 989 -36 
Q 684 19 347 128 
L 347 722 
Q 666 556 975 473 
Q 1284 391 1588 391 
Q 1994 391 2212 530 
Q 2431 669 2431 922 
Q 2431 1156 2273 1281 
Q 2116 1406 1581 1522 
L 1381 1569 
Q 847 1681 609 1914 
Q 372 2147 372 2553 
Q 372 3047 722 3315 
Q 1072 3584 1716 3584 
Q 2034 3584 2315 3537 
Q 2597 3491 2834 3397 
z
" transform="scale(0.015625)"/>
      <path id="DejaVuSans-ed" d="M 1322 5119 
L 1944 5119 
L 926 3944 
L 447 3944 
L 1322 5119 
z
M 603 3500 
L 1178 3500 
L 1178 0 
L 603 0 
L 603 3500 
z
M 891 3584 
L 891 3584 
z
" transform="scale(0.015625)"/>
      <path id="DejaVuSans-20" transform="scale(0.015625)"/>
      <path id="DejaVuSans-64" d="M 2906 2969 
L 2906 4863 
L 3481 4863 
L 3481 0 
L 2906 0 
L 2906 525 
Q 2725 213 2448 61 
Q 2172 -91 1784 -91 
Q 1150 -91 751 415 
Q 353 922 353 1747 
Q 353 2572 751 3078 
Q 1150 3584 1784 3584 
Q 2172 3584 2448 3432 
Q 2725 3281 2906 2969 
z
M 947 1747 
Q 947 1113 1208 752 
Q 1469 391 1925 391 
Q 2381 391 2643 752 
Q 2906 1113 2906 1747 
Q 2906 2381 2643 2742 
Q 2381 3103 1925 3103 
Q 1469 3103 1208 2742 
Q 947 2381 947 1747 
z
" transform="scale(0.015625)"/>
      <path id="DejaVuSans-65" d="M 3597 1894 
L 3597 1613 
L 953 1613 
Q 991 1019 1311 708 
Q 1631 397 2203 397 
Q 2534 397 2845 478 
Q 3156 559 3463 722 
L 3463 178 
Q 3153 47 2828 -22 
Q 2503 -91 2169 -91 
Q 1331 -91 842 396 
Q 353 884 353 1716 
Q 353 2575 817 3079 
Q 1281 3584 2069 3584 
Q 2775 3584 3186 3129 
Q 3597 2675 3597 1894 
z
M 3022 2063 
Q 3016 2534 2758 2815 
Q 2500 3097 2075 3097 
Q 1594 3097 1305 2825 
Q 1016 2553 972 2059 
L 3022 2063 
z
" transform="scale(0.015625)"/>
      <path id="DejaVuSans-74" d="M 1172 4494 
L 1172 3500 
L 2356 3500 
L 2356 3053 
L 1172 3053 
L 1172 1153 
Q 1172 725 1289 603 
Q 1406 481 1766 481 
L 2356 481 
L 2356 0 
L 1766 0 
Q 1100 0 847 248 
Q 594 497 594 1153 
L 594 3053 
L 172 3053 
L 172 3500 
L 594 3500 
L 594 4494 
L 1172 4494 
z
" transform="scale(0.015625)"/>
      <path id="DejaVuSans-6f" d="M 1959 3097 
Q 1497 3097 1228 2736 
Q 959 2375 959 1747 
Q 959 1119 1226 758 
Q 1494 397 1959 397 
Q 2419 397 2687 759 
Q 2956 1122 2956 1747 
Q 2956 2369 2687 2733 
Q 2419 3097 1959 3097 
z
M 1959 3584 
Q 2709 3584 3137 3096 
Q 3566 2609 3566 1747 
Q 3566 888 3137 398 
Q 2709 -91 1959 -91 
Q 1206 -91 779 398 
Q 353 888 353 1747 
Q 353 2609 779 3096 
Q 1206 3584 1959 3584 
z
" transform="scale(0.015625)"/>
     </defs>
     <use xlink:href="#DejaVuSans-41"/>
     <use xlink:href="#DejaVuSans-6e" transform="translate(68.408203 0)"/>
     <use xlink:href="#DejaVuSans-61" transform="translate(131.787109 0)"/>
     <use xlink:href="#DejaVuSans-6c" transform="translate(193.066406 0)"/>
     <use xlink:href="#DejaVuSans-69" transform="translate(220.849609 0)"/>
     <use xlink:href="#DejaVuSans-73" transform="translate(248.632812 0)"/>
     <use xlink:href="#DejaVuSans-ed" transform="translate(300.732422 0)"/>
     <use xlink:href="#DejaVuSans-73" transform="translate(328.515625 0)"/>
     <use xlink:href="#DejaVuSans-20" transform="translate(380.615234 0)"/>
     <use xlink:href="#DejaVuSans-64" transform="translate(412.402344 0)"/>
     <use xlink:href="#DejaVuSans-65" transform="translate(475.878906 0)"/>
     <use xlink:href="#DejaVuSans-20" transform="translate(537.402344 0)"/>
     <use xlink:href="#DejaVuSans-64" transform="translate(569.189453 0)"/>
     <use xlink:href="#DejaVuSans-61" transform="translate(632.666016 0)"/>
     <use xlink:href="#DejaVuSans-74" transform="translate(693.945312 0)"/>
     <use xlink:href="#DejaVuSans-6f" transform="translate(733.154297 0)"/>
     <use xlink:href="#DejaVuSans-73" transform="translate(794.335938 0)"/>
    </g>
   </g>
   <g id="text_6">
    <!-- Automática -->
    <g transform="translate(446.449526 283.543093) rotate(-51.428571) scale(0.14 -0.14)">
     <defs>
      <path id="DejaVuSans-75" d="M 544 1381 
L 544 3500 
L 1119 3500 
L 1119 1403 
Q 1119 906 1312 657 
Q 1506 409 1894 409 
Q 2359 409 2629 706 
Q 2900 1003 2900 1516 
L 2900 3500 
L 3475 3500 
L 3475 0 
L 2900 0 
L 2900 538 
Q 2691 219 2414 64 
Q 2138 -91 1772 -91 
Q 1169 -91 856 284 
Q 544 659 544 1381 
z
M 1991 3584 
L 1991 3584 
z
" transform="scale(0.015625)"/>
      <path id="DejaVuSans-6d" d="M 3328 2828 
Q 3544 3216 3844 3400 
Q 4144 3584 4550 3584 
Q 5097 3584 5394 3201 
Q 5691 2819 5691 2113 
L 5691 0 
L 5113 0 
L 5113 2094 
Q 5113 2597 4934 2840 
Q 4756 3084 4391 3084 
Q 3944 3084 3684 2787 
Q 3425 2491 3425 1978 
L 3425 0 
L 2847 0 
L 2847 2094 
Q 2847 2600 2669 2842 
Q 2491 3084 2119 3084 
Q 1678 3084 1418 2786 
Q 1159 2488 1159 1978 
L 1159 0 
L 581 0 
L 581 3500 
L 1159 3500 
L 1159 2956 
Q 1356 3278 1631 3431 
Q 1906 3584 2284 3584 
Q 2666 3584 2933 3390 
Q 3200 3197 3328 2828 
z
" transform="scale(0.015625)"/>
      <path id="DejaVuSans-e1" d="M 2194 1759 
Q 1497 1759 1228 1600 
Q 959 1441 959 1056 
Q 959 750 1161 570 
Q 1363 391 1709 391 
Q 2188 391 2477 730 
Q 2766 1069 2766 1631 
L 2766 1759 
L 2194 1759 
z
M 3341 1997 
L 3341 0 
L 2766 0 
L 2766 531 
Q 2569 213 2275 61 
Q 1981 -91 1556 -91 
Q 1019 -91 701 211 
Q 384 513 384 1019 
Q 384 1609 779 1909 
Q 1175 2209 1959 2209 
L 2766 2209 
L 2766 2266 
Q 2766 2663 2505 2880 
Q 2244 3097 1772 3097 
Q 1472 3097 1187 3025 
Q 903 2953 641 2809 
L 641 3341 
Q 956 3463 1253 3523 
Q 1550 3584 1831 3584 
Q 2591 3584 2966 3190 
Q 3341 2797 3341 1997 
z
M 2290 5119 
L 2912 5119 
L 1894 3944 
L 1415 3944 
L 2290 5119 
z
" transform="scale(0.015625)"/>
      <path id="DejaVuSans-63" d="M 3122 3366 
L 3122 2828 
Q 2878 2963 2633 3030 
Q 2388 3097 2138 3097 
Q 1578 3097 1268 2742 
Q 959 2388 959 1747 
Q 959 1106 1268 751 
Q 1578 397 2138 397 
Q 2388 397 2633 464 
Q 2878 531 3122 666 
L 3122 134 
Q 2881 22 2623 -34 
Q 2366 -91 2075 -91 
Q 1284 -91 818 406 
Q 353 903 353 1747 
Q 353 2603 823 3093 
Q 1294 3584 2113 3584 
Q 2378 3584 2631 3529 
Q 2884 3475 3122 3366 
z
" transform="scale(0.015625)"/>
     </defs>
     <use xlink:href="#DejaVuSans-41"/>
     <use xlink:href="#DejaVuSans-75" transform="translate(68.408203 0)"/>
     <use xlink:href="#DejaVuSans-74" transform="translate(131.787109 0)"/>
     <use xlink:href="#DejaVuSans-6f" transform="translate(170.996094 0)"/>
     <use xlink:href="#DejaVuSans-6d" transform="translate(232.177734 0)"/>
     <use xlink:href="#DejaVuSans-e1" transform="translate(329.589844 0)"/>
     <use xlink:href="#DejaVuSans-74" transform="translate(390.869141 0)"/>
     <use xlink:href="#DejaVuSans-69" transform="translate(430.078125 0)"/>
     <use xlink:href="#DejaVuSans-63" transform="translate(457.861328 0)"/>
     <use xlink:href="#DejaVuSans-61" transform="translate(512.841797 0)"/>
    </g>
   </g>
   <g id="text_7">
    <!-- Ciencias básicas -->
    <g transform="translate(308.303287 145.476221) rotate(-282.857143) scale(0.14 -0.14)">
     <defs>
      <path id="DejaVuSans-43" d="M 4122 4306 
L 4122 3641 
Q 3803 3938 3442 4084 
Q 3081 4231 2675 4231 
Q 1875 4231 1450 3742 
Q 1025 3253 1025 2328 
Q 1025 1406 1450 917 
Q 1875 428 2675 428 
Q 3081 428 3442 575 
Q 3803 722 4122 1019 
L 4122 359 
Q 3791 134 3420 21 
Q 3050 -91 2638 -91 
Q 1578 -91 968 557 
Q 359 1206 359 2328 
Q 359 3453 968 4101 
Q 1578 4750 2638 4750 
Q 3056 4750 3426 4639 
Q 3797 4528 4122 4306 
z
" transform="scale(0.015625)"/>
      <path id="DejaVuSans-62" d="M 3116 1747 
Q 3116 2381 2855 2742 
Q 2594 3103 2138 3103 
Q 1681 3103 1420 2742 
Q 1159 2381 1159 1747 
Q 1159 1113 1420 752 
Q 1681 391 2138 391 
Q 2594 391 2855 752 
Q 3116 1113 3116 1747 
z
M 1159 2969 
Q 1341 3281 1617 3432 
Q 1894 3584 2278 3584 
Q 2916 3584 3314 3078 
Q 3713 2572 3713 1747 
Q 3713 922 3314 415 
Q 2916 -91 2278 -91 
Q 1894 -91 1617 61 
Q 1341 213 1159 525 
L 1159 0 
L 581 0 
L 581 4863 
L 1159 4863 
L 1159 2969 
z
" transform="scale(0.015625)"/>
     </defs>
     <use xlink:href="#DejaVuSans-43"/>
     <use xlink:href="#DejaVuSans-69" transform="translate(69.824219 0)"/>
     <use xlink:href="#DejaVuSans-65" transform="translate(97.607422 0)"/>
     <use xlink:href="#DejaVuSans-6e" transform="translate(159.130859 0)"/>
     <use xlink:href="#DejaVuSans-63" transform="translate(222.509766 0)"/>
     <use xlink:href="#DejaVuSans-69" transform="translate(277.490234 0)"/>
     <use xlink:href="#DejaVuSans-61" transform="translate(305.273438 0)"/>
     <use xlink:href="#DejaVuSans-73" transform="translate(366.552734 0)"/>
     <use xlink:href="#DejaVuSans-20" transform="translate(418.652344 0)"/>
     <use xlink:href="#DejaVuSans-62" transform="translate(450.439453 0)"/>
     <use xlink:href="#DejaVuSans-e1" transform="translate(513.916016 0)"/>
     <use xlink:href="#DejaVuSans-73" transform="translate(575.195312 0)"/>
     <use xlink:href="#DejaVuSans-69" transform="translate(627.294922 0)"/>
     <use xlink:href="#DejaVuSans-63" transform="translate(655.078125 0)"/>
     <use xlink:href="#DejaVuSans-61" transform="translate(710.058594 0)"/>
     <use xlink:href="#DejaVuSans-73" transform="translate(771.337891 0)"/>
    </g>
   </g>
   <g id="text_8">
    <!-- Comunicación y dibujo -->
    <g transform="translate(120.902663 256.551254) rotate(-334.285714) scale(0.14 -0.14)">
     <defs>
      <path id="DejaVuSans-f3" d="M 1959 3097 
Q 1497 3097 1228 2736 
Q 959 2375 959 1747 
Q 959 1119 1226 758 
Q 1494 397 1959 397 
Q 2419 397 2687 759 
Q 2956 1122 2956 1747 
Q 2956 2369 2687 2733 
Q 2419 3097 1959 3097 
z
M 1959 3584 
Q 2709 3584 3137 3096 
Q 3566 2609 3566 1747 
Q 3566 888 3137 398 
Q 2709 -91 1959 -91 
Q 1206 -91 779 398 
Q 353 888 353 1747 
Q 353 2609 779 3096 
Q 1206 3584 1959 3584 
z
M 2394 5119 
L 3016 5119 
L 1998 3944 
L 1519 3944 
L 2394 5119 
z
" transform="scale(0.015625)"/>
      <path id="DejaVuSans-79" d="M 2059 -325 
Q 1816 -950 1584 -1140 
Q 1353 -1331 966 -1331 
L 506 -1331 
L 506 -850 
L 844 -850 
Q 1081 -850 1212 -737 
Q 1344 -625 1503 -206 
L 1606 56 
L 191 3500 
L 800 3500 
L 1894 763 
L 2988 3500 
L 3597 3500 
L 2059 -325 
z
" transform="scale(0.015625)"/>
      <path id="DejaVuSans-6a" d="M 603 3500 
L 1178 3500 
L 1178 -63 
Q 1178 -731 923 -1031 
Q 669 -1331 103 -1331 
L -116 -1331 
L -116 -844 
L 38 -844 
Q 366 -844 484 -692 
Q 603 -541 603 -63 
L 603 3500 
z
M 603 4863 
L 1178 4863 
L 1178 4134 
L 603 4134 
L 603 4863 
z
" transform="scale(0.015625)"/>
     </defs>
     <use xlink:href="#DejaVuSans-43"/>
     <use xlink:href="#DejaVuSans-6f" transform="translate(69.824219 0)"/>
     <use xlink:href="#DejaVuSans-6d" transform="translate(131.005859 0)"/>
     <use xlink:href="#DejaVuSans-75" transform="translate(228.417969 0)"/>
     <use xlink:href="#DejaVuSans-6e" transform="translate(291.796875 0)"/>
     <use xlink:href="#DejaVuSans-69" transform="translate(355.175781 0)"/>
     <use xlink:href="#DejaVuSans-63" transform="translate(382.958984 0)"/>
     <use xlink:href="#DejaVuSans-61" transform="translate(437.939453 0)"/>
     <use xlink:href="#DejaVuSans-63" transform="translate(499.21875 0)"/>
     <use xlink:href="#DejaVuSans-69" transform="translate(554.199219 0)"/>
     <use xlink:href="#DejaVuSans-f3" transform="translate(581.982422 0)"/>
     <use xlink:href="#DejaVuSans-6e" transform="translate(643.164062 0)"/>
     <use xlink:href="#DejaVuSans-20" transform="translate(706.542969 0)"/>
     <use xlink:href="#DejaVuSans-79" transform="translate(738.330078 0)"/>
     <use xlink:href="#DejaVuSans-20" transform="translate(797.509766 0)"/>
     <use xlink:href="#DejaVuSans-64" transform="translate(829.296875 0)"/>
     <use xlink:href="#DejaVuSans-69" transform="translate(892.773438 0)"/>
     <use xlink:href="#DejaVuSans-62" transform="translate(920.556641 0)"/>
     <use xlink:href="#DejaVuSans-75" transform="translate(984.033203 0)"/>
     <use xlink:href="#DejaVuSans-6a" transform="translate(1047.412109 0)"/>
     <use xlink:href="#DejaVuSans-6f" transform="translate(1075.195312 0)"/>
    </g>
   </g>
   <g id="text_9">
    <!-- Formación profesional y -->
    <g transform="translate(122.9787 494.506248) rotate(-25.714286) scale(0.14 -0.14)">
     <defs>
      <path id="DejaVuSans-46" d="M 628 4666 
L 3309 4666 
L 3309 4134 
L 1259 4134 
L 1259 2759 
L 3109 2759 
L 3109 2228 
L 1259 2228 
L 1259 0 
L 628 0 
L 628 4666 
z
" transform="scale(0.015625)"/>
      <path id="DejaVuSans-72" d="M 2631 2963 
Q 2534 3019 2420 3045 
Q 2306 3072 2169 3072 
Q 1681 3072 1420 2755 
Q 1159 2438 1159 1844 
L 1159 0 
L 581 0 
L 581 3500 
L 1159 3500 
L 1159 2956 
Q 1341 3275 1631 3429 
Q 1922 3584 2338 3584 
Q 2397 3584 2469 3576 
Q 2541 3569 2628 3553 
L 2631 2963 
z
" transform="scale(0.015625)"/>
      <path id="DejaVuSans-70" d="M 1159 525 
L 1159 -1331 
L 581 -1331 
L 581 3500 
L 1159 3500 
L 1159 2969 
Q 1341 3281 1617 3432 
Q 1894 3584 2278 3584 
Q 2916 3584 3314 3078 
Q 3713 2572 3713 1747 
Q 3713 922 3314 415 
Q 2916 -91 2278 -91 
Q 1894 -91 1617 61 
Q 1341 213 1159 525 
z
M 3116 1747 
Q 3116 2381 2855 2742 
Q 2594 3103 2138 3103 
Q 1681 3103 1420 2742 
Q 1159 2381 1159 1747 
Q 1159 1113 1420 752 
Q 1681 391 2138 391 
Q 2594 391 2855 752 
Q 3116 1113 3116 1747 
z
" transform="scale(0.015625)"/>
      <path id="DejaVuSans-66" d="M 2375 4863 
L 2375 4384 
L 1825 4384 
Q 1516 4384 1395 4259 
Q 1275 4134 1275 3809 
L 1275 3500 
L 2222 3500 
L 2222 3053 
L 1275 3053 
L 1275 0 
L 697 0 
L 697 3053 
L 147 3053 
L 147 3500 
L 697 3500 
L 697 3744 
Q 697 4328 969 4595 
Q 1241 4863 1831 4863 
L 2375 4863 
z
" transform="scale(0.015625)"/>
     </defs>
     <use xlink:href="#DejaVuSans-46"/>
     <use xlink:href="#DejaVuSans-6f" transform="translate(53.894531 0)"/>
     <use xlink:href="#DejaVuSans-72" transform="translate(115.076172 0)"/>
     <use xlink:href="#DejaVuSans-6d" transform="translate(154.439453 0)"/>
     <use xlink:href="#DejaVuSans-61" transform="translate(251.851562 0)"/>
     <use xlink:href="#DejaVuSans-63" transform="translate(313.130859 0)"/>
     <use xlink:href="#DejaVuSans-69" transform="translate(368.111328 0)"/>
     <use xlink:href="#DejaVuSans-f3" transform="translate(395.894531 0)"/>
     <use xlink:href="#DejaVuSans-6e" transform="translate(457.076172 0)"/>
     <use xlink:href="#DejaVuSans-20" transform="translate(520.455078 0)"/>
     <use xlink:href="#DejaVuSans-70" transform="translate(552.242188 0)"/>
     <use xlink:href="#DejaVuSans-72" transform="translate(615.71875 0)"/>
     <use xlink:href="#DejaVuSans-6f" transform="translate(654.582031 0)"/>
     <use xlink:href="#DejaVuSans-66" transform="translate(715.763672 0)"/>
     <use xlink:href="#DejaVuSans-65" transform="translate(750.96875 0)"/>
     <use xlink:href="#DejaVuSans-73" transform="translate(812.492188 0)"/>
     <use xlink:href="#DejaVuSans-69" transform="translate(864.591797 0)"/>
     <use xlink:href="#DejaVuSans-6f" transform="translate(892.375 0)"/>
     <use xlink:href="#DejaVuSans-6e" transform="translate(953.556641 0)"/>
     <use xlink:href="#DejaVuSans-61" transform="translate(1016.935547 0)"/>
     <use xlink:href="#DejaVuSans-6c" transform="translate(1078.214844 0)"/>
     <use xlink:href="#DejaVuSans-20" transform="translate(1105.998047 0)"/>
     <use xlink:href="#DejaVuSans-79" transform="translate(1137.785156 0)"/>
    </g>
    <!-- habilidades interpersonales -->
    <g transform="translate(106.238633 519.967927) rotate(-25.714286) scale(0.14 -0.14)">
     <defs>
      <path id="DejaVuSans-68" d="M 3513 2113 
L 3513 0 
L 2938 0 
L 2938 2094 
Q 2938 2591 2744 2837 
Q 2550 3084 2163 3084 
Q 1697 3084 1428 2787 
Q 1159 2491 1159 1978 
L 1159 0 
L 581 0 
L 581 4863 
L 1159 4863 
L 1159 2956 
Q 1366 3272 1645 3428 
Q 1925 3584 2291 3584 
Q 2894 3584 3203 3211 
Q 3513 2838 3513 2113 
z
" transform="scale(0.015625)"/>
     </defs>
     <use xlink:href="#DejaVuSans-68"/>
     <use xlink:href="#DejaVuSans-61" transform="translate(63.378906 0)"/>
     <use xlink:href="#DejaVuSans-62" transform="translate(124.658203 0)"/>
     <use xlink:href="#DejaVuSans-69" transform="translate(188.134766 0)"/>
     <use xlink:href="#DejaVuSans-6c" transform="translate(215.917969 0)"/>
     <use xlink:href="#DejaVuSans-69" transform="translate(243.701172 0)"/>
     <use xlink:href="#DejaVuSans-64" transform="translate(271.484375 0)"/>
     <use xlink:href="#DejaVuSans-61" transform="translate(334.960938 0)"/>
     <use xlink:href="#DejaVuSans-64" transform="translate(396.240234 0)"/>
     <use xlink:href="#DejaVuSans-65" transform="translate(459.716797 0)"/>
     <use xlink:href="#DejaVuSans-73" transform="translate(521.240234 0)"/>
     <use xlink:href="#DejaVuSans-20" transform="translate(573.339844 0)"/>
     <use xlink:href="#DejaVuSans-69" transform="translate(605.126953 0)"/>
     <use xlink:href="#DejaVuSans-6e" transform="translate(632.910156 0)"/>
     <use xlink:href="#DejaVuSans-74" transform="translate(696.289062 0)"/>
     <use xlink:href="#DejaVuSans-65" transform="translate(735.498047 0)"/>
     <use xlink:href="#DejaVuSans-72" transform="translate(797.021484 0)"/>
     <use xlink:href="#DejaVuSans-70" transform="translate(838.134766 0)"/>
     <use xlink:href="#DejaVuSans-65" transform="translate(901.611328 0)"/>
     <use xlink:href="#DejaVuSans-72" transform="translate(963.134766 0)"/>
     <use xlink:href="#DejaVuSans-73" transform="translate(1004.248047 0)"/>
     <use xlink:href="#DejaVuSans-6f" transform="translate(1056.347656 0)"/>
     <use xlink:href="#DejaVuSans-6e" transform="translate(1117.529297 0)"/>
     <use xlink:href="#DejaVuSans-61" transform="translate(1180.908203 0)"/>
     <use xlink:href="#DejaVuSans-6c" transform="translate(1242.1875 0)"/>
     <use xlink:href="#DejaVuSans-65" transform="translate(1269.970703 0)"/>
     <use xlink:href="#DejaVuSans-73" transform="translate(1331.494141 0)"/>
    </g>
   </g>
   <g id="text_10">
    <!-- Ingeniería eléctrica y -->
    <g transform="translate(322.418485 618.009464) rotate(-77.142857) scale(0.14 -0.14)">
     <defs>
      <path id="DejaVuSans-49" d="M 628 4666 
L 1259 4666 
L 1259 0 
L 628 0 
L 628 4666 
z
" transform="scale(0.015625)"/>
      <path id="DejaVuSans-67" d="M 2906 1791 
Q 2906 2416 2648 2759 
Q 2391 3103 1925 3103 
Q 1463 3103 1205 2759 
Q 947 2416 947 1791 
Q 947 1169 1205 825 
Q 1463 481 1925 481 
Q 2391 481 2648 825 
Q 2906 1169 2906 1791 
z
M 3481 434 
Q 3481 -459 3084 -895 
Q 2688 -1331 1869 -1331 
Q 1566 -1331 1297 -1286 
Q 1028 -1241 775 -1147 
L 775 -588 
Q 1028 -725 1275 -790 
Q 1522 -856 1778 -856 
Q 2344 -856 2625 -561 
Q 2906 -266 2906 331 
L 2906 616 
Q 2728 306 2450 153 
Q 2172 0 1784 0 
Q 1141 0 747 490 
Q 353 981 353 1791 
Q 353 2603 747 3093 
Q 1141 3584 1784 3584 
Q 2172 3584 2450 3431 
Q 2728 3278 2906 2969 
L 2906 3500 
L 3481 3500 
L 3481 434 
z
" transform="scale(0.015625)"/>
      <path id="DejaVuSans-e9" d="M 3597 1894 
L 3597 1613 
L 953 1613 
Q 991 1019 1311 708 
Q 1631 397 2203 397 
Q 2534 397 2845 478 
Q 3156 559 3463 722 
L 3463 178 
Q 3153 47 2828 -22 
Q 2503 -91 2169 -91 
Q 1331 -91 842 396 
Q 353 884 353 1716 
Q 353 2575 817 3079 
Q 1281 3584 2069 3584 
Q 2775 3584 3186 3129 
Q 3597 2675 3597 1894 
z
M 3022 2063 
Q 3016 2534 2758 2815 
Q 2500 3097 2075 3097 
Q 1594 3097 1305 2825 
Q 1016 2553 972 2059 
L 3022 2063 
z
M 2466 5119 
L 3088 5119 
L 2070 3944 
L 1591 3944 
L 2466 5119 
z
" transform="scale(0.015625)"/>
     </defs>
     <use xlink:href="#DejaVuSans-49"/>
     <use xlink:href="#DejaVuSans-6e" transform="translate(29.492188 0)"/>
     <use xlink:href="#DejaVuSans-67" transform="translate(92.871094 0)"/>
     <use xlink:href="#DejaVuSans-65" transform="translate(156.347656 0)"/>
     <use xlink:href="#DejaVuSans-6e" transform="translate(217.871094 0)"/>
     <use xlink:href="#DejaVuSans-69" transform="translate(281.25 0)"/>
     <use xlink:href="#DejaVuSans-65" transform="translate(309.033203 0)"/>
     <use xlink:href="#DejaVuSans-72" transform="translate(370.556641 0)"/>
     <use xlink:href="#DejaVuSans-ed" transform="translate(411.669922 0)"/>
     <use xlink:href="#DejaVuSans-61" transform="translate(439.453125 0)"/>
     <use xlink:href="#DejaVuSans-20" transform="translate(500.732422 0)"/>
     <use xlink:href="#DejaVuSans-65" transform="translate(532.519531 0)"/>
     <use xlink:href="#DejaVuSans-6c" transform="translate(594.042969 0)"/>
     <use xlink:href="#DejaVuSans-e9" transform="translate(621.826172 0)"/>
     <use xlink:href="#DejaVuSans-63" transform="translate(683.349609 0)"/>
     <use xlink:href="#DejaVuSans-74" transform="translate(738.330078 0)"/>
     <use xlink:href="#DejaVuSans-72" transform="translate(777.539062 0)"/>
     <use xlink:href="#DejaVuSans-69" transform="translate(818.652344 0)"/>
     <use xlink:href="#DejaVuSans-63" transform="translate(846.435547 0)"/>
     <use xlink:href="#DejaVuSans-61" transform="translate(901.416016 0)"/>
     <use xlink:href="#DejaVuSans-20" transform="translate(962.695312 0)"/>
     <use xlink:href="#DejaVuSans-79" transform="translate(994.482422 0)"/>
    </g>
    <!-- electrónica -->
    <g transform="translate(353.315829 553.090875) rotate(-77.142857) scale(0.14 -0.14)">
     <use xlink:href="#DejaVuSans-65"/>
     <use xlink:href="#DejaVuSans-6c" transform="translate(61.523438 0)"/>
     <use xlink:href="#DejaVuSans-65" transform="translate(89.306641 0)"/>
     <use xlink:href="#DejaVuSans-63" transform="translate(150.830078 0)"/>
     <use xlink:href="#DejaVuSans-74" transform="translate(205.810547 0)"/>
     <use xlink:href="#DejaVuSans-72" transform="translate(245.019531 0)"/>
     <use xlink:href="#DejaVuSans-f3" transform="translate(283.882812 0)"/>
     <use xlink:href="#DejaVuSans-6e" transform="translate(345.064453 0)"/>
     <use xlink:href="#DejaVuSans-69" transform="translate(408.443359 0)"/>
     <use xlink:href="#DejaVuSans-63" transform="translate(436.226562 0)"/>
     <use xlink:href="#DejaVuSans-61" transform="translate(491.207031 0)"/>
    </g>
   </g>
   <g id="text_11">
    <!-- Ingeniería mecánica y de -->
    <g transform="translate(429.377747 457.271197) rotate(-308.571429) scale(0.14 -0.14)">
     <use xlink:href="#DejaVuSans-49"/>
     <use xlink:href="#DejaVuSans-6e" transform="translate(29.492188 0)"/>
     <use xlink:href="#DejaVuSans-67" transform="translate(92.871094 0)"/>
     <use xlink:href="#DejaVuSans-65" transform="translate(156.347656 0)"/>
     <use xlink:href="#DejaVuSans-6e" transform="translate(217.871094 0)"/>
     <use xlink:href="#DejaVuSans-69" transform="translate(281.25 0)"/>
     <use xlink:href="#DejaVuSans-65" transform="translate(309.033203 0)"/>
     <use xlink:href="#DejaVuSans-72" transform="translate(370.556641 0)"/>
     <use xlink:href="#DejaVuSans-ed" transform="translate(411.669922 0)"/>
     <use xlink:href="#DejaVuSans-61" transform="translate(439.453125 0)"/>
     <use xlink:href="#DejaVuSans-20" transform="translate(500.732422 0)"/>
     <use xlink:href="#DejaVuSans-6d" transform="translate(532.519531 0)"/>
     <use xlink:href="#DejaVuSans-65" transform="translate(629.931641 0)"/>
     <use xlink:href="#DejaVuSans-63" transform="translate(691.455078 0)"/>
     <use xlink:href="#DejaVuSans-e1" transform="translate(746.435547 0)"/>
     <use xlink:href="#DejaVuSans-6e" transform="translate(807.714844 0)"/>
     <use xlink:href="#DejaVuSans-69" transform="translate(871.09375 0)"/>
     <use xlink:href="#DejaVuSans-63" transform="translate(898.876953 0)"/>
     <use xlink:href="#DejaVuSans-61" transform="translate(953.857422 0)"/>
     <use xlink:href="#DejaVuSans-20" transform="translate(1015.136719 0)"/>
     <use xlink:href="#DejaVuSans-79" transform="translate(1046.923828 0)"/>
     <use xlink:href="#DejaVuSans-20" transform="translate(1106.103516 0)"/>
     <use xlink:href="#DejaVuSans-64" transform="translate(1137.890625 0)"/>
     <use xlink:href="#DejaVuSans-65" transform="translate(1201.367188 0)"/>
    </g>
    <!-- materiales -->
    <g transform="translate(417.121024 467.045607) rotate(-308.571429) scale(0.14 -0.14)">
     <use xlink:href="#DejaVuSans-6d"/>
     <use xlink:href="#DejaVuSans-61" transform="translate(97.412109 0)"/>
     <use xlink:href="#DejaVuSans-74" transform="translate(158.691406 0)"/>
     <use xlink:href="#DejaVuSans-65" transform="translate(197.900391 0)"/>
     <use xlink:href="#DejaVuSans-72" transform="translate(259.423828 0)"/>
     <use xlink:href="#DejaVuSans-69" transform="translate(300.537109 0)"/>
     <use xlink:href="#DejaVuSans-61" transform="translate(328.320312 0)"/>
     <use xlink:href="#DejaVuSans-6c" transform="translate(389.599609 0)"/>
     <use xlink:href="#DejaVuSans-65" transform="translate(417.382812 0)"/>
     <use xlink:href="#DejaVuSans-73" transform="translate(478.90625 0)"/>
    </g>
   </g>
  </g>
 </g>
 <defs>
  <clipPath id="p1705f425ff">
   <path d="M 646.2 363.6 
C 646.2 327.19843 639.029684 291.150818 625.099406 257.520153 
C 611.169128 223.889487 590.749797 193.329798 565.01 167.59 
C 539.270202 141.850203 508.710513 121.430872 475.079847 107.500594 
C 441.449182 93.570316 405.40157 86.4 369 86.4 
C 332.59843 86.4 296.550818 93.570316 262.920153 107.500594 
C 229.289487 121.430872 198.729798 141.850203 172.99 167.59 
C 147.250203 193.329798 126.830872 223.889487 112.900594 257.520153 
C 98.970316 291.150818 91.8 327.19843 91.8 363.6 
C 91.8 400.00157 98.970316 436.049182 112.900594 469.679847 
C 126.830872 503.310513 147.250203 533.870202 172.99 559.61 
C 198.729798 585.349797 229.289487 605.769128 262.920153 619.699406 
C 296.550818 633.629684 332.59843 640.8 369 640.8 
C 405.40157 640.8 441.449182 633.629684 475.079847 619.699406 
C 508.710513 605.769128 539.270202 585.349797 565.01 559.61 
C 590.749797 533.870202 611.169128 503.310513 625.099406 469.679847 
C 639.029684 436.049182 646.2 400.00157 646.2 363.6 
M 369 363.6 
C 369 363.6 369 363.6 369 363.6 
C 369 363.6 369 363.6 369 363.6 
C 369 363.6 369 363.6 369 363.6 
C 369 363.6 369 363.6 369 363.6 
C 369 363.6 369 363.6 369 363.6 
C 369 363.6 369 363.6 369 363.6 
C 369 363.6 369 363.6 369 363.6 
C 369 363.6 369 363.6 369 363.6 
C 369 363.6 369 363.6 369 363.6 
C 369 363.6 369 363.6 369 363.6 
C 369 363.6 369 363.6 369 363.6 
C 369 363.6 369 363.6 369 363.6 
C 369 363.6 369 363.6 369 363.6 
C 369 363.6 369 363.6 369 363.6 
C 369 363.6 369 363.6 369 363.6 
C 369 363.6 369 363.6 369 363.6 
z
"/>
  </clipPath>
 </defs>
</svg>
